<svg width="181" height="53" viewBox="0 0 181 53" fill="none" xmlns="http://www.w3.org/2000/svg">
<path d="M179.753 46.5031C179.753 49.2743 177.461 51.5189 174.627 51.5189H6.88499C4.05206 51.5189 1.75256 49.2743 1.75256 46.5031V6.50357C1.75256 3.73374 4.05206 1.4812 6.88499 1.4812H174.625C177.461 1.4812 179.751 3.73374 179.751 6.50357L179.753 46.5031Z" fill="black"/>
<path d="M174.086 1.54162C177.173 1.54162 179.684 3.9905 179.684 7V46C179.684 49.0095 177.173 51.4584 174.086 51.4584H7.41923C4.33256 51.4584 1.8209 49.0095 1.8209 46V7C1.8209 3.9905 4.33256 1.54162 7.41923 1.54162H174.086ZM174.086 0.500003H7.41923C3.75423 0.500003 0.752563 3.42663 0.752563 7V46C0.752563 49.5734 3.75423 52.5 7.41923 52.5H174.086C177.751 52.5 180.753 49.5734 180.753 46V7C180.753 3.42663 177.751 0.500003 174.086 0.500003Z" fill="#A6A6A6"/>
<path d="M40.9232 26.2191C40.8846 22.0292 44.4419 19.9908 44.6046 19.8959C42.5899 17.032 39.4672 16.6407 38.3699 16.6095C35.7472 16.3404 33.2032 18.1396 31.8672 18.1396C30.5046 18.1396 28.4472 16.6355 26.2299 16.6797C23.3766 16.7226 20.7072 18.3333 19.2432 20.8345C16.2219 25.9344 18.4752 33.4289 21.3699 37.5512C22.8179 39.5701 24.5099 41.8243 26.7246 41.745C28.8912 41.6579 29.7006 40.3982 32.3152 40.3982C34.9059 40.3982 35.6659 41.745 37.9246 41.6943C40.2499 41.6579 41.7139 39.6663 43.1112 37.6292C44.7846 35.3152 45.4566 33.0363 45.4832 32.9193C45.4286 32.9011 40.9672 31.241 40.9232 26.2191Z" fill="white"/>
<path d="M36.6566 13.8977C37.8219 12.4768 38.6192 10.5437 38.3979 8.58203C36.7112 8.65483 34.6019 9.71953 33.3872 11.1092C32.3126 12.3338 31.3526 14.341 31.6006 16.2286C33.4952 16.3664 35.4406 15.2965 36.6566 13.8977Z" fill="white"/>
<path d="M72.2792 41.4552H69.2512L67.5926 36.3735H61.8272L60.2472 41.4552H57.2992L63.0112 24.1548H66.5392L72.2792 41.4552ZM67.0926 34.2415L65.5926 29.724C65.4339 29.2625 65.1366 28.1757 64.6979 26.4649H64.6446C64.4699 27.2007 64.1886 28.2875 63.8019 29.724L62.3286 34.2415H67.0926Z" fill="white"/>
<path d="M86.9686 35.0645C86.9686 37.1861 86.3805 38.8631 85.2045 40.0942C84.1512 41.1901 82.8432 41.7374 81.2819 41.7374C79.5965 41.7374 78.3859 41.1472 77.6485 39.9668H77.5952V46.5383H74.7525V33.0872C74.7525 31.7534 74.7166 30.3845 74.6472 28.9805H77.1472L77.3059 30.9578H77.3592C78.3072 29.468 79.7459 28.7244 81.6765 28.7244C83.1859 28.7244 84.4459 29.3055 85.4539 30.469C86.4646 31.6338 86.9686 33.1652 86.9686 35.0645ZM84.0726 35.1659C84.0726 33.9517 83.7926 32.9507 83.2299 32.1629C82.6152 31.3413 81.7899 30.9305 80.7552 30.9305C80.0539 30.9305 79.4165 31.1593 78.8472 31.6104C78.2765 32.0654 77.9032 32.6595 77.7285 33.3953C77.6405 33.7385 77.5965 34.0193 77.5965 34.2403V36.3203C77.5965 37.2277 77.8819 37.9934 78.4526 38.6187C79.0232 39.244 79.7645 39.556 80.6765 39.556C81.7472 39.556 82.5805 39.153 83.1765 38.3496C83.7739 37.5449 84.0726 36.4841 84.0726 35.1659Z" fill="white"/>
<path d="M101.685 35.0645C101.685 37.1861 101.097 38.8631 99.9192 40.0942C98.8672 41.1901 97.5592 41.7374 95.9979 41.7374C94.3126 41.7374 93.1019 41.1472 92.3659 39.9668H92.3126V46.5383H89.4699V33.0872C89.4699 31.7534 89.4339 30.3845 89.3646 28.9805H91.8646L92.0232 30.9578H92.0766C93.0232 29.468 94.4619 28.7244 96.3939 28.7244C97.9019 28.7244 99.1619 29.3055 100.173 30.469C101.179 31.6338 101.685 33.1652 101.685 35.0645ZM98.7886 35.1659C98.7886 33.9517 98.5072 32.9507 97.9446 32.1629C97.3299 31.3413 96.5072 30.9305 95.4712 30.9305C94.7686 30.9305 94.1326 31.1593 93.5619 31.6104C92.9912 32.0654 92.6192 32.6595 92.4446 33.3953C92.3579 33.7385 92.3126 34.0193 92.3126 34.2403V36.3203C92.3126 37.2277 92.5979 37.9934 93.1659 38.6187C93.7366 39.2427 94.4779 39.556 95.3926 39.556C96.4632 39.556 97.2966 39.153 97.8926 38.3496C98.4899 37.5449 98.7886 36.4841 98.7886 35.1659Z" fill="white"/>
<path d="M118.138 36.6037C118.138 38.0753 117.614 39.2726 116.562 40.1969C115.406 41.207 113.797 41.7114 111.729 41.7114C109.819 41.7114 108.289 41.3526 107.13 40.6337L107.789 38.3236C109.037 39.0594 110.406 39.4286 111.898 39.4286C112.969 39.4286 113.802 39.192 114.401 38.7214C114.997 38.2508 115.294 37.619 115.294 36.8312C115.294 36.1292 115.049 35.5377 114.557 35.058C114.067 34.5783 113.25 34.1324 112.109 33.7203C109.002 32.5906 107.45 30.9357 107.45 28.7595C107.45 27.3373 107.994 26.1712 109.083 25.2638C110.169 24.3551 111.617 23.9014 113.427 23.9014C115.042 23.9014 116.383 24.1757 117.454 24.723L116.743 26.9824C115.743 26.452 114.613 26.1868 113.347 26.1868C112.347 26.1868 111.566 26.4273 111.006 26.9057C110.533 27.3334 110.295 27.8547 110.295 28.4722C110.295 29.156 110.566 29.7215 111.11 30.1661C111.583 30.5769 112.443 31.0215 113.691 31.5012C115.218 32.1005 116.339 32.8012 117.061 33.6046C117.779 34.4054 118.138 35.4077 118.138 36.6037Z" fill="white"/>
<path d="M127.537 31.0604H124.403V37.1171C124.403 38.6576 124.955 39.4272 126.062 39.4272C126.57 39.4272 126.991 39.3843 127.325 39.2985L127.403 41.4032C126.843 41.6073 126.106 41.71 125.193 41.71C124.07 41.71 123.193 41.3759 122.559 40.709C121.929 40.0408 121.611 38.9202 121.611 37.3459V31.0578H119.745V28.9778H121.611V26.6937L124.403 25.8721V28.9778H127.537V31.0604Z" fill="white"/>
<path d="M141.674 35.1151C141.674 37.0326 141.111 38.6069 139.989 39.838C138.811 41.1055 137.249 41.7373 135.301 41.7373C133.423 41.7373 131.929 41.1302 130.814 39.916C129.699 38.7018 129.142 37.1691 129.142 35.3218C129.142 33.3887 129.715 31.8053 130.866 30.5742C132.014 29.3418 133.563 28.7256 135.511 28.7256C137.389 28.7256 138.899 29.3327 140.039 30.5482C141.13 31.7273 141.674 33.2496 141.674 35.1151ZM138.725 35.2048C138.725 34.0543 138.473 33.0676 137.962 32.2447C137.366 31.2489 136.514 30.7523 135.41 30.7523C134.267 30.7523 133.399 31.2502 132.803 32.2447C132.293 33.0689 132.041 34.0712 132.041 35.2568C132.041 36.4073 132.293 37.394 132.803 38.2156C133.418 39.2114 134.277 39.708 135.385 39.708C136.47 39.708 137.322 39.201 137.937 38.1896C138.461 37.3511 138.725 36.354 138.725 35.2048Z" fill="white"/>
<path d="M150.914 31.418C150.633 31.3673 150.333 31.3413 150.018 31.3413C149.018 31.3413 148.245 31.7092 147.701 32.4463C147.227 33.0963 146.99 33.9179 146.99 34.9098V41.4553H144.149L144.175 32.9091C144.175 31.4713 144.139 30.1622 144.069 28.9818H146.545L146.649 31.3686H146.727C147.027 30.5483 147.501 29.8879 148.149 29.3926C148.782 28.9467 149.466 28.7244 150.203 28.7244C150.466 28.7244 150.703 28.7426 150.914 28.7751V31.418Z" fill="white"/>
<path d="M163.627 34.6276C163.627 35.1242 163.594 35.5428 163.523 35.8847H154.995C155.029 37.1171 155.441 38.0596 156.233 38.7096C156.951 39.2907 157.881 39.5819 159.022 39.5819C160.285 39.5819 161.437 39.3856 162.473 38.9917L162.918 40.9157C161.707 41.4305 160.278 41.6866 158.629 41.6866C156.645 41.6866 155.087 41.1172 153.954 39.9797C152.823 38.8422 152.257 37.3147 152.257 35.3985C152.257 33.5174 152.783 31.9509 153.838 30.7016C154.942 29.3678 156.434 28.7009 158.311 28.7009C160.155 28.7009 161.551 29.3678 162.499 30.7016C163.25 31.7611 163.627 33.0715 163.627 34.6276ZM160.917 33.9087C160.935 33.0871 160.75 32.3773 160.365 31.778C159.873 31.0071 159.117 30.6223 158.099 30.6223C157.17 30.6223 156.414 30.998 155.837 31.752C155.363 32.3513 155.082 33.0702 154.995 33.9074H160.917V33.9087Z" fill="white"/>
<path d="M66.1526 13.5116C66.1526 15.0417 65.6819 16.1935 64.7419 16.967C63.8713 17.6807 62.6339 18.0382 61.0312 18.0382C60.2366 18.0382 59.5566 18.0044 58.9872 17.9368V9.57646C59.7299 9.45946 60.5299 9.39966 61.3939 9.39966C62.9206 9.39966 64.0712 9.72336 64.8472 10.3708C65.7166 11.1027 66.1526 12.1492 66.1526 13.5116ZM64.6793 13.5493C64.6793 12.5574 64.4099 11.7969 63.8713 11.2665C63.3326 10.7374 62.5459 10.4722 61.5099 10.4722C61.0699 10.4722 60.6952 10.5008 60.3846 10.5606V16.9163C60.5566 16.9423 60.8712 16.954 61.3286 16.954C62.3979 16.954 63.2233 16.6641 63.8046 16.0843C64.3859 15.5045 64.6793 14.6595 64.6793 13.5493Z" fill="white"/>
<path d="M73.9646 14.8479C73.9646 15.7904 73.6886 16.5626 73.1366 17.1684C72.5579 17.7911 71.7913 18.1018 70.8339 18.1018C69.9113 18.1018 69.1766 17.8041 68.6286 17.2061C68.0819 16.6094 67.8086 15.8567 67.8086 14.9493C67.8086 14.0003 68.0899 13.2216 68.6553 12.6171C69.2206 12.0126 69.9806 11.7097 70.9379 11.7097C71.8606 11.7097 72.6019 12.0074 73.1633 12.6041C73.6966 13.1839 73.9646 13.9327 73.9646 14.8479ZM72.5153 14.8921C72.5153 14.3266 72.3899 13.8417 72.1406 13.4374C71.8473 12.9486 71.4299 12.7042 70.8873 12.7042C70.3259 12.7042 69.8993 12.9486 69.6059 13.4374C69.3553 13.8417 69.2313 14.3344 69.2313 14.9168C69.2313 15.4823 69.3566 15.9672 69.6059 16.3715C69.9086 16.8603 70.3299 17.1047 70.8739 17.1047C71.4073 17.1047 71.8259 16.8564 72.1273 16.3585C72.3859 15.9464 72.5153 15.4576 72.5153 14.8921Z" fill="white"/>
<path d="M84.4392 11.8347L82.4726 17.9629H81.1926L80.3779 15.3018C80.1712 14.6375 80.0032 13.9771 79.8726 13.3219H79.8472C79.7259 13.9953 79.5579 14.6544 79.3419 15.3018L78.4766 17.9629H77.1819L75.3326 11.8347H76.7686L77.4792 14.748C77.6512 15.437 77.7926 16.0935 77.9059 16.7149H77.9312C78.0352 16.2027 78.2072 15.5501 78.4499 14.761L79.3419 11.836H80.4806L81.3352 14.6986C81.5419 15.3967 81.7099 16.0688 81.8392 16.7162H81.8779C81.9726 16.0857 82.1152 15.4136 82.3046 14.6986L83.0672 11.836H84.4392V11.8347Z" fill="white"/>
<path d="M91.6832 17.9627H90.2859V14.4527C90.2859 13.3711 89.8646 12.8303 89.0192 12.8303C88.6046 12.8303 88.2699 12.9785 88.0099 13.2762C87.7526 13.5739 87.6219 13.9249 87.6219 14.3266V17.9614H86.2246V13.5856C86.2246 13.0474 86.2073 12.4637 86.1739 11.8319H87.4019L87.4673 12.79H87.5059C87.6686 12.4923 87.9112 12.2466 88.2299 12.0503C88.6086 11.8215 89.0326 11.7058 89.4966 11.7058C90.0832 11.7058 90.5712 11.8904 90.9592 12.2609C91.4419 12.7146 91.6832 13.3919 91.6832 14.2915V17.9627Z" fill="white"/>
<path d="M95.5366 17.9628H94.1406V9.02271H95.5366V17.9628Z" fill="white"/>
<path d="M103.763 14.8479C103.763 15.7904 103.487 16.5626 102.935 17.1684C102.357 17.7911 101.589 18.1018 100.633 18.1018C99.7086 18.1018 98.9739 17.8041 98.4272 17.2061C97.8806 16.6094 97.6072 15.8567 97.6072 14.9493C97.6072 14.0003 97.8886 13.2216 98.4539 12.6171C99.0192 12.0126 99.7792 11.7097 100.735 11.7097C101.659 11.7097 102.399 12.0074 102.962 12.6041C103.495 13.1839 103.763 13.9327 103.763 14.8479ZM102.313 14.8921C102.313 14.3266 102.187 13.8417 101.938 13.4374C101.646 12.9486 101.227 12.7042 100.686 12.7042C100.123 12.7042 99.6966 12.9486 99.4046 13.4374C99.1539 13.8417 99.0299 14.3344 99.0299 14.9168C99.0299 15.4823 99.1552 15.9672 99.4046 16.3715C99.7072 16.8603 100.129 17.1047 100.673 17.1047C101.206 17.1047 101.623 16.8564 101.925 16.3585C102.185 15.9464 102.313 15.4576 102.313 14.8921Z" fill="white"/>
<path d="M110.526 17.9627H109.271L109.167 17.2568H109.129C108.699 17.8197 108.087 18.1018 107.293 18.1018C106.699 18.1018 106.219 17.9159 105.858 17.5467C105.53 17.2113 105.366 16.794 105.366 16.2987C105.366 15.5499 105.686 14.9792 106.33 14.584C106.973 14.1888 107.877 13.9951 109.041 14.0042V13.8898C109.041 13.0825 108.606 12.6795 107.735 12.6795C107.115 12.6795 106.569 12.8316 106.097 13.1332L105.813 12.2388C106.397 11.8865 107.118 11.7097 107.969 11.7097C109.611 11.7097 110.435 12.5547 110.435 14.2447V16.5015C110.435 17.1138 110.466 17.6013 110.526 17.9627ZM109.075 15.8567V14.9116C107.534 14.8856 106.763 15.2977 106.763 16.1466C106.763 16.4664 106.851 16.7056 107.031 16.8655C107.211 17.0254 107.441 17.1047 107.714 17.1047C108.021 17.1047 108.307 17.0098 108.569 16.8213C108.831 16.6315 108.993 16.391 109.053 16.0959C109.067 16.0296 109.075 15.949 109.075 15.8567Z" fill="white"/>
<path d="M118.466 17.9628H117.226L117.161 16.9787H117.122C116.726 17.7275 116.051 18.1019 115.103 18.1019C114.346 18.1019 113.715 17.812 113.215 17.2322C112.715 16.6524 112.466 15.8997 112.466 14.9754C112.466 13.9835 112.737 13.1801 113.281 12.5665C113.807 11.9945 114.453 11.7085 115.221 11.7085C116.065 11.7085 116.655 11.9854 116.991 12.5405H117.018V9.02271H118.417V16.3118C118.417 16.9085 118.433 17.4584 118.466 17.9628ZM117.018 15.3784V14.3566C117.018 14.1798 117.005 14.0368 116.979 13.9276C116.901 13.6 116.731 13.3244 116.474 13.1021C116.214 12.8798 115.901 12.768 115.539 12.768C115.018 12.768 114.61 12.9695 114.31 13.3738C114.013 13.7781 113.862 14.2942 113.862 14.9247C113.862 15.5305 114.005 16.0219 114.291 16.4002C114.594 16.8032 115.002 17.0047 115.513 17.0047C115.971 17.0047 116.338 16.837 116.617 16.5003C116.886 16.1896 117.018 15.8152 117.018 15.3784Z" fill="white"/>
<path d="M130.417 14.8479C130.417 15.7904 130.141 16.5626 129.589 17.1684C129.01 17.7911 128.245 18.1018 127.286 18.1018C126.365 18.1018 125.63 17.8041 125.081 17.2061C124.534 16.6094 124.261 15.8567 124.261 14.9493C124.261 14.0003 124.542 13.2216 125.107 12.6171C125.673 12.0126 126.433 11.7097 127.391 11.7097C128.313 11.7097 129.055 12.0074 129.615 12.6041C130.149 13.1839 130.417 13.9327 130.417 14.8479ZM128.969 14.8921C128.969 14.3266 128.843 13.8417 128.594 13.4374C128.299 12.9486 127.883 12.7042 127.339 12.7042C126.779 12.7042 126.353 12.9486 126.058 13.4374C125.807 13.8417 125.683 14.3344 125.683 14.9168C125.683 15.4823 125.809 15.9672 126.058 16.3715C126.361 16.8603 126.782 17.1047 127.326 17.1047C127.859 17.1047 128.279 16.8564 128.581 16.3585C128.838 15.9464 128.969 15.4576 128.969 14.8921Z" fill="white"/>
<path d="M137.93 17.9627H136.534V14.4527C136.534 13.3711 136.113 12.8303 135.266 12.8303C134.851 12.8303 134.517 12.9785 134.258 13.2762C133.999 13.5739 133.87 13.9249 133.87 14.3266V17.9614H132.471V13.5856C132.471 13.0474 132.455 12.4637 132.422 11.8319H133.649L133.714 12.79H133.753C133.917 12.4923 134.159 12.2466 134.477 12.0503C134.857 11.8215 135.279 11.7058 135.745 11.7058C136.33 11.7058 136.818 11.8904 137.206 12.2609C137.69 12.7146 137.93 13.3919 137.93 14.2915V17.9627Z" fill="white"/>
<path d="M147.334 12.855H145.795V15.832C145.795 16.5886 146.069 16.9669 146.61 16.9669C146.861 16.9669 147.069 16.9461 147.233 16.9032L147.269 17.9367C146.993 18.0381 146.63 18.0888 146.183 18.0888C145.631 18.0888 145.202 17.925 144.891 17.5974C144.579 17.2698 144.425 16.7186 144.425 15.9451V12.855H143.506V11.8345H144.425V10.7113L145.794 10.3083V11.8333H147.333V12.855H147.334Z" fill="white"/>
<path d="M154.731 17.9628H153.333V14.4788C153.333 13.3803 152.911 12.8304 152.067 12.8304C151.419 12.8304 150.977 13.1489 150.734 13.7859C150.693 13.9198 150.669 14.0836 150.669 14.276V17.9615H149.273V9.02271H150.669V12.716H150.695C151.135 12.0439 151.766 11.7085 152.583 11.7085C153.162 11.7085 153.641 11.8931 154.021 12.2636C154.494 12.7251 154.731 13.4115 154.731 14.3189V17.9628Z" fill="white"/>
<path d="M162.362 14.6087C162.362 14.8531 162.343 15.0585 162.31 15.2262H158.119C158.138 15.832 158.338 16.2935 158.726 16.6133C159.081 16.8993 159.538 17.0423 160.098 17.0423C160.718 17.0423 161.283 16.9461 161.793 16.7524L162.011 17.6988C161.415 17.951 160.714 18.0771 159.902 18.0771C158.929 18.0771 158.162 17.7976 157.607 17.2386C157.05 16.6796 156.774 15.9295 156.774 14.9883C156.774 14.064 157.031 13.2944 157.55 12.6808C158.091 12.0256 158.823 11.698 159.747 11.698C160.651 11.698 161.338 12.0256 161.802 12.6808C162.177 13.2008 162.362 13.8443 162.362 14.6087ZM161.029 14.2564C161.039 13.8521 160.947 13.5037 160.758 13.2099C160.515 12.8316 160.146 12.6418 159.646 12.6418C159.19 12.6418 158.818 12.8264 158.534 13.1969C158.302 13.492 158.165 13.8443 158.119 14.2564H161.029Z" fill="white"/>
</svg>
