<svg width="14" height="16" viewBox="0 0 14 16" fill="none" xmlns="http://www.w3.org/2000/svg">
<path d="M0.43 0.269999H7.866C9.69933 0.269999 11.0487 0.643999 11.914 1.392C12.794 2.14 13.234 3.13733 13.234 4.384V4.472C13.234 6.30533 12.3247 7.43467 10.506 7.86C11.474 8.036 12.2367 8.432 12.794 9.048C13.366 9.64933 13.652 10.478 13.652 11.534V11.622C13.652 14.5407 11.7087 16 7.822 16H0.43V0.269999ZM6.876 12.722C8.12267 12.722 8.746 12.172 8.746 11.072V10.984C8.746 9.91333 8.086 9.378 6.766 9.378H5.292V12.722H6.876ZM6.81 6.408C7.426 6.408 7.866 6.298 8.13 6.078C8.394 5.858 8.526 5.506 8.526 5.022V4.934C8.526 3.99533 7.94667 3.526 6.788 3.526H5.292V6.408H6.81Z" fill="#16A34A"/>
</svg>
