<svg width="62" height="62" viewBox="0 0 62 62" fill="none" xmlns="http://www.w3.org/2000/svg">
<rect width="62" height="62" rx="31" fill="#16A34A"/>
<path d="M24.625 16.75C24.625 16.1287 24.1213 15.625 23.5 15.625C22.8787 15.625 22.375 16.1287 22.375 16.75V19.1189C20.216 19.2918 18.7987 19.7161 17.7574 20.7574C16.7161 21.7987 16.2918 23.216 16.1189 25.375H45.8811C45.7082 23.216 45.2839 21.7987 44.2426 20.7574C43.2013 19.7161 41.784 19.2918 39.625 19.1189V16.75C39.625 16.1287 39.1213 15.625 38.5 15.625C37.8787 15.625 37.375 16.1287 37.375 16.75V19.0194C36.3771 19 35.2586 19 34 19H28C26.7414 19 25.6229 19 24.625 19.0194V16.75Z" fill="white"/>
<path fill-rule="evenodd" clip-rule="evenodd" d="M16 31C16 29.7414 16 28.6229 16.0194 27.625H45.9806C46 28.6229 46 29.7414 46 31V34C46 39.6569 46 42.4853 44.2426 44.2426C42.4853 46 39.6569 46 34 46H28C22.3431 46 19.5147 46 17.7574 44.2426C16 42.4853 16 39.6569 16 34V31ZM38.5 34C39.3284 34 40 33.3284 40 32.5C40 31.6716 39.3284 31 38.5 31C37.6716 31 37 31.6716 37 32.5C37 33.3284 37.6716 34 38.5 34ZM38.5 40C39.3284 40 40 39.3284 40 38.5C40 37.6716 39.3284 37 38.5 37C37.6716 37 37 37.6716 37 38.5C37 39.3284 37.6716 40 38.5 40ZM32.5 32.5C32.5 33.3284 31.8284 34 31 34C30.1716 34 29.5 33.3284 29.5 32.5C29.5 31.6716 30.1716 31 31 31C31.8284 31 32.5 31.6716 32.5 32.5ZM32.5 38.5C32.5 39.3284 31.8284 40 31 40C30.1716 40 29.5 39.3284 29.5 38.5C29.5 37.6716 30.1716 37 31 37C31.8284 37 32.5 37.6716 32.5 38.5ZM23.5 34C24.3284 34 25 33.3284 25 32.5C25 31.6716 24.3284 31 23.5 31C22.6716 31 22 31.6716 22 32.5C22 33.3284 22.6716 34 23.5 34ZM23.5 40C24.3284 40 25 39.3284 25 38.5C25 37.6716 24.3284 37 23.5 37C22.6716 37 22 37.6716 22 38.5C22 39.3284 22.6716 40 23.5 40Z" fill="white"/>
</svg>
