<svg width="62" height="62" viewBox="0 0 62 62" fill="none" xmlns="http://www.w3.org/2000/svg">
<rect width="62" height="62" rx="31" fill="#16A34A"/>
<path fill-rule="evenodd" clip-rule="evenodd" d="M31 16C25.3431 16 22.5147 16 20.7574 17.7574C19.1627 19.352 19.0151 21.8285 19.0014 26.5H17.5C16.6716 26.5 16 27.1716 16 28V29.5C16 29.9721 16.2223 30.4167 16.6 30.7L19 32.5C19.0137 37.1715 19.1627 39.648 20.7574 41.2426C21.1206 41.6059 21.5297 41.8941 22 42.1227V44.4999C22 45.3283 22.6716 45.9999 23.5 45.9999H25.75C26.5784 45.9999 27.25 45.3283 27.25 44.4999V42.9723C28.3406 43 29.5814 43 31 43C32.4186 43 33.6594 43 34.75 42.9723V44.4999C34.75 45.3283 35.4216 45.9999 36.25 45.9999H38.5C39.3284 45.9999 40 45.3283 40 44.4999V42.1227C40.4703 41.8941 40.8794 41.6059 41.2426 41.2426C42.8373 39.648 42.9863 37.1715 43 32.5L45.4 30.7C45.7777 30.4167 46 29.9721 46 29.5V28C46 27.1716 45.3284 26.5 44.5 26.5H42.9986C42.9849 21.8285 42.8373 19.352 41.2426 17.7574C39.4853 16 36.6569 16 31 16ZM21.25 27.25C21.25 29.3713 21.25 30.432 21.909 31.091C22.568 31.75 23.6287 31.75 25.75 31.75H31H36.25C38.3713 31.75 39.432 31.75 40.091 31.091C40.75 30.432 40.75 29.3713 40.75 27.25V23.5C40.75 21.3787 40.75 20.318 40.091 19.659C39.432 19 38.3713 19 36.25 19H31H25.75C23.6287 19 22.568 19 21.909 19.659C21.25 20.318 21.25 21.3787 21.25 23.5V27.25ZM22.375 37C22.375 36.3787 22.8787 35.875 23.5 35.875H25.75C26.3713 35.875 26.875 36.3787 26.875 37C26.875 37.6213 26.3713 38.125 25.75 38.125H23.5C22.8787 38.125 22.375 37.6213 22.375 37ZM39.625 37C39.625 36.3787 39.1213 35.875 38.5 35.875H36.25C35.6287 35.875 35.125 36.3787 35.125 37C35.125 37.6213 35.6287 38.125 36.25 38.125H38.5C39.1213 38.125 39.625 37.6213 39.625 37Z" fill="white"/>
</svg>
