<svg width="45" height="44" viewBox="0 0 45 44" fill="none" xmlns="http://www.w3.org/2000/svg">
<rect x="0.876587" width="43.3702" height="43.3702" rx="21.6851" fill="#16A34A"/>
<path d="M18.8623 23.0458C18.7597 23.0458 16.5028 23.0458 15.4769 23.0458C14.9298 23.0458 14.7588 22.8406 14.7588 22.3277C14.7588 20.9599 14.7588 19.5579 14.7588 18.19C14.7588 17.6429 14.964 17.4719 15.4769 17.4719H18.8623C18.8623 17.3693 18.8623 15.386 18.8623 14.4627C18.8623 13.0949 19.1016 11.7954 19.7856 10.5986C20.5037 9.36752 21.5295 8.54682 22.829 8.06808C23.6839 7.76032 24.5388 7.62354 25.4621 7.62354H28.8132C29.292 7.62354 29.4972 7.82871 29.4972 8.30745V12.2058C29.4972 12.6845 29.292 12.8897 28.8132 12.8897C27.89 12.8897 26.9667 12.8897 26.0434 12.9239C25.1201 12.9239 24.6414 13.3684 24.6414 14.3259C24.6072 15.3518 24.6414 16.3435 24.6414 17.4035H28.6081C29.1552 17.4035 29.3604 17.6087 29.3604 18.1558V22.2935C29.3604 22.8406 29.1894 23.0116 28.6081 23.0116C27.377 23.0116 24.7439 23.0116 24.6414 23.0116V34.1594C24.6414 34.7408 24.4704 34.9459 23.8549 34.9459C22.4186 34.9459 21.0166 34.9459 19.5804 34.9459C19.0675 34.9459 18.8623 34.7408 18.8623 34.2278C18.8623 30.6373 18.8623 23.1484 18.8623 23.0458Z" fill="white"/>
</svg>
