<svg width="82" height="82" viewBox="0 0 82 82" fill="none" xmlns="http://www.w3.org/2000/svg">
<path fill-rule="evenodd" clip-rule="evenodd" d="M40.9999 4.27087C42.4151 4.27087 43.5624 5.41814 43.5624 6.83337V13.6667C43.5624 15.0819 42.4151 16.2292 40.9999 16.2292C39.5847 16.2292 38.4374 15.0819 38.4374 13.6667V6.83337C38.4374 5.41814 39.5847 4.27087 40.9999 4.27087ZM18.688 18.6881C19.6887 17.6874 21.3112 17.6874 22.3119 18.6881L23.4847 19.8609C24.4854 20.8616 24.4854 22.4841 23.4847 23.4848C22.484 24.4855 20.8615 24.4855 19.8608 23.4848L18.688 22.312C17.6872 21.3113 17.6872 19.6888 18.688 18.6881ZM63.3119 18.6881C64.3126 19.6888 64.3126 21.3113 63.3119 22.312L62.1391 23.4848C61.1384 24.4855 59.5159 24.4855 58.5151 23.4848C57.5144 22.4841 57.5144 20.8616 58.5151 19.8609L59.688 18.6881C60.6887 17.6874 62.3112 17.6874 63.3119 18.6881ZM4.27075 41C4.27075 39.5848 5.41802 38.4375 6.83325 38.4375H13.6666C15.0818 38.4375 16.2291 39.5848 16.2291 41C16.2291 42.4153 15.0818 43.5625 13.6666 43.5625H6.83325C5.41802 43.5625 4.27075 42.4153 4.27075 41ZM65.7708 41C65.7708 39.5848 66.918 38.4375 68.3333 38.4375H75.1666C76.5818 38.4375 77.7291 39.5848 77.7291 41C77.7291 42.4153 76.5818 43.5625 75.1666 43.5625H68.3333C66.918 43.5625 65.7708 42.4153 65.7708 41ZM23.484 58.516C24.4847 59.5167 24.4847 61.1392 23.484 62.1399L22.3119 63.312C21.3112 64.3127 19.6887 64.3127 18.688 63.312C17.6872 62.3113 17.6872 60.6888 18.688 59.6881L19.86 58.516C20.8608 57.5153 22.4832 57.5153 23.484 58.516ZM58.5159 58.516C59.5166 57.5153 61.1391 57.5153 62.1398 58.516L63.3119 59.6881C64.3126 60.6888 64.3126 62.3113 63.3119 63.312C62.3112 64.3127 60.6887 64.3127 59.688 63.312L58.5159 62.1399C57.5152 61.1392 57.5152 59.5167 58.5159 58.516ZM40.9999 65.7709C42.4151 65.7709 43.5624 66.9181 43.5624 68.3334V75.1667C43.5624 76.5819 42.4151 77.7292 40.9999 77.7292C39.5847 77.7292 38.4374 76.5819 38.4374 75.1667V68.3334C38.4374 66.9181 39.5847 65.7709 40.9999 65.7709Z" fill="#16A34A"/>
<path d="M23.9167 37.7867C23.9167 46.473 30.7833 51.1018 35.8097 55.2448C37.5834 56.7068 39.2917 58.0834 41.0001 58.0834C42.7084 58.0834 44.4167 56.7068 46.1905 55.2448C51.2169 51.1018 58.0834 46.473 58.0834 37.7867C58.0834 29.1004 48.6873 22.9402 41.0001 31.2911C33.3129 22.9402 23.9167 29.1004 23.9167 37.7867Z" fill="#16A34A"/>
</svg>
