<svg width="44" height="44" viewBox="0 0 44 44" fill="none" xmlns="http://www.w3.org/2000/svg">
<rect width="43.3702" height="43.3702" rx="21.6851" fill="#16A34A"/>
<g clip-path="url(#clip0_112_112)">
<path d="M35.0044 16.1871C34.9419 14.769 34.7126 13.794 34.3841 12.9492C34.0452 12.0525 33.5238 11.2497 32.8407 10.5823C32.1733 9.90447 31.3652 9.37779 30.4788 9.04419C29.6291 8.71568 28.6593 8.48636 27.2412 8.42383C25.8125 8.35601 25.3589 8.34033 21.7354 8.34033C18.1118 8.34033 17.6582 8.35601 16.2348 8.41854C14.8167 8.48106 13.8418 8.71059 12.9972 9.0389C12.1002 9.37779 11.2974 9.89917 10.63 10.5823C9.9522 11.2497 9.42573 12.0578 9.09192 12.9441C8.76341 13.794 8.53409 14.7637 8.47156 16.1818C8.40374 17.6105 8.38806 18.064 8.38806 21.6876C8.38806 25.3112 8.40374 25.7648 8.46627 27.1882C8.52879 28.6063 8.75832 29.5812 9.08683 30.426C9.42573 31.3227 9.9522 32.1256 10.63 32.793C11.2974 33.4708 12.1055 33.9974 12.9919 34.331C13.8418 34.6596 14.8114 34.8889 16.2297 34.9514C17.6529 35.0141 18.1067 35.0296 21.7303 35.0296C25.3538 35.0296 25.8074 35.0141 27.2308 34.9514C28.6489 34.8889 29.6238 34.6596 30.4684 34.331C32.2621 33.6376 33.6802 32.2195 34.3737 30.426C34.702 29.5761 34.9315 28.6063 34.994 27.1882C35.0566 25.7648 35.0723 25.3112 35.0723 21.6876C35.0723 18.064 35.067 17.6105 35.0044 16.1871ZM32.601 27.0839C32.5436 28.3873 32.3246 29.0912 32.1421 29.5604C31.6937 30.7232 30.7709 31.646 29.6082 32.0944C29.1389 32.2769 28.43 32.4958 27.1316 32.5531C25.7239 32.6158 25.3017 32.6313 21.7406 32.6313C18.1796 32.6313 17.7521 32.6158 16.3495 32.5531C15.046 32.4958 14.3422 32.2769 13.8729 32.0944C13.2943 31.8806 12.7676 31.5417 12.3402 31.0985C11.897 30.6657 11.5581 30.1443 11.3442 29.5657C11.1618 29.0965 10.9428 28.3873 10.8856 27.0892C10.8229 25.6815 10.8074 25.2591 10.8074 21.698C10.8074 18.137 10.8229 17.7095 10.8856 16.307C10.9428 15.0036 11.1618 14.2997 11.3442 13.8305C11.5581 13.2517 11.897 12.7252 12.3454 12.2975C12.778 11.8543 13.2994 11.5154 13.8782 11.3018C14.3475 11.1193 15.0566 10.9004 16.3548 10.8429C17.7625 10.7804 18.1849 10.7647 21.7457 10.7647C25.3121 10.7647 25.7343 10.7804 27.1369 10.8429C28.4404 10.9004 29.1442 11.1193 29.6135 11.3018C30.1921 11.5154 30.7187 11.8543 31.1462 12.2975C31.5894 12.7303 31.9283 13.2517 32.1421 13.8305C32.3246 14.2997 32.5436 15.0087 32.601 16.307C32.6635 17.7148 32.6792 18.137 32.6792 21.698C32.6792 25.2591 32.6635 25.6762 32.601 27.0839Z" fill="white"/>
<path d="M21.7348 14.8311C17.9497 14.8311 14.8787 17.9019 14.8787 21.6872C14.8787 25.4725 17.9497 28.5433 21.7348 28.5433C25.5201 28.5433 28.5909 25.4725 28.5909 21.6872C28.5909 17.9019 25.5201 14.8311 21.7348 14.8311ZM21.7348 26.1346C19.2792 26.1346 17.2874 24.143 17.2874 21.6872C17.2874 19.2314 19.2792 17.2398 21.7348 17.2398C24.1906 17.2398 26.1822 19.2314 26.1822 21.6872C26.1822 24.143 24.1906 26.1346 21.7348 26.1346Z" fill="white"/>
<path d="M30.4626 14.5608C30.4626 15.4447 29.7459 16.1614 28.8618 16.1614C27.9779 16.1614 27.2612 15.4447 27.2612 14.5608C27.2612 13.6767 27.9779 12.9602 28.8618 12.9602C29.7459 12.9602 30.4626 13.6767 30.4626 14.5608Z" fill="white"/>
</g>
<defs>
<clipPath id="clip0_112_112">
<rect width="26.6894" height="26.6894" fill="white" transform="translate(8.34045 8.34033)"/>
</clipPath>
</defs>
</svg>
