<svg width="62" height="62" viewBox="0 0 62 62" fill="none" xmlns="http://www.w3.org/2000/svg">
<rect width="62" height="62" rx="31" fill="#16A34A"/>
<path d="M44.4121 25.2832C45.2823 26.1431 45.6566 27.2258 45.8315 28.5117C46.0001 29.7502 46 31.325 46 33.2787V33.4354C46 35.3892 46.0001 36.9639 45.8315 38.2025C45.6566 39.4883 45.2823 40.571 44.4121 41.4309C43.5418 42.2908 42.4461 42.6607 41.1448 42.8335C39.8914 43.0001 38.2977 43 36.3205 43H28.933C26.9558 43 25.3621 43.0001 24.1087 42.8335C22.8074 42.6607 21.7117 42.2908 20.8414 41.4309C20.3135 40.9092 19.968 40.3056 19.7389 39.6243C21.0461 39.7861 22.6633 39.786 24.5318 39.7859H32.0461C33.9686 39.786 35.625 39.7861 36.9515 39.6099C38.373 39.421 39.7357 38.9951 40.841 37.903C41.9463 36.8108 42.3773 35.4644 42.5684 34.0597C42.7467 32.749 42.7466 31.1122 42.7465 29.2126V28.9304C42.7466 27.0837 42.7467 25.4853 42.5829 24.1935C43.2727 24.4199 43.8839 24.7613 44.4121 25.2832Z" fill="white"/>
<path d="M28.2889 26.5715C26.8916 26.5715 25.7589 27.6908 25.7589 29.0715C25.7589 30.4522 26.8916 31.5715 28.2889 31.5715C29.6863 31.5715 30.819 30.4522 30.819 29.0715C30.819 27.6908 29.6863 26.5715 28.2889 26.5715Z" fill="white"/>
<path fill-rule="evenodd" clip-rule="evenodd" d="M17.2704 21.7553C16 23.0105 16 25.0309 16 29.0715C16 33.1121 16 35.1325 17.2704 36.3877C18.5407 37.643 20.5853 37.643 24.6745 37.643H31.9033C35.9926 37.643 38.0372 37.643 39.3075 36.3877C40.5779 35.1325 40.5779 33.1121 40.5779 29.0715C40.5779 25.0309 40.5779 23.0105 39.3075 21.7553C38.0372 20.5 35.9926 20.5 31.9033 20.5H24.6745C20.5853 20.5 18.5407 20.5 17.2704 21.7553ZM23.5902 29.0715C23.5902 26.5073 25.6939 24.4286 28.2889 24.4286C30.884 24.4286 32.9877 26.5073 32.9877 29.0715C32.9877 31.6357 30.884 33.7144 28.2889 33.7144C25.6939 33.7144 23.5902 31.6357 23.5902 29.0715ZM36.2406 33.0001C35.6418 33.0001 35.1563 32.5204 35.1563 31.9287V26.2143C35.1563 25.6226 35.6418 25.1429 36.2406 25.1429C36.8395 25.1429 37.3249 25.6226 37.3249 26.2143V31.9287C37.3249 32.5204 36.8395 33.0001 36.2406 33.0001ZM19.253 31.9287C19.253 32.5204 19.7384 33.0001 20.3373 33.0001C20.9361 33.0001 21.4216 32.5204 21.4216 31.9287L21.4216 26.2143C21.4216 25.6226 20.9361 25.1429 20.3373 25.1429C19.7384 25.1429 19.253 25.6226 19.253 26.2143L19.253 31.9287Z" fill="white"/>
</svg>
