<svg width="62" height="62" viewBox="0 0 62 62" fill="none" xmlns="http://www.w3.org/2000/svg">
<rect width="62" height="62" rx="31" fill="#7E22CE"/>
<path d="M44.5 38.2435V29.7435C44.5 28.1781 44.5 27.3954 44.0753 26.8062C43.7322 26.3302 43.1818 26.0772 42.2 25.7366C41.9992 28.1459 41.2013 30.6063 39.9483 32.7598C38.4892 35.2672 36.3225 37.509 33.5455 38.7205C31.927 39.4266 30.073 39.4266 28.4545 38.7205C25.6775 37.509 23.5108 35.2672 22.0517 32.7598C21.1013 31.1264 20.4127 29.3164 20.0479 27.486C19.4741 27.4015 19.0337 27.4449 18.6537 27.6569C18.5021 27.7415 18.3608 27.8433 18.2326 27.9604C17.5 28.6296 17.5 29.8737 17.5 32.3621V39.7566C17.5 41.322 17.5 42.1047 17.9247 42.6939C18.3494 43.2832 19.0919 43.5307 20.577 44.0257L21.1523 44.2175L21.1524 44.2175C23.5178 45.006 24.7005 45.4002 25.9103 45.4025C26.2747 45.4032 26.6386 45.3773 26.9993 45.3251C28.1966 45.1518 29.3214 44.5894 31.5709 43.4646C33.2949 42.6026 34.1569 42.1716 35.0725 41.9717C35.3939 41.9015 35.7195 41.8525 36.0473 41.8251C36.9812 41.7469 37.9235 41.904 39.8082 42.2181L39.8082 42.2181C41.7182 42.5364 42.6732 42.6956 43.3705 42.2952C43.6073 42.1592 43.8173 41.9812 43.9904 41.77C44.5 41.1481 44.5 40.1799 44.5 38.2435Z" fill="white"/>
<path fill-rule="evenodd" clip-rule="evenodd" d="M31 16C26.0294 16 22 19.8282 22 24.5505C22 29.2357 24.8725 34.703 29.3542 36.6582C30.399 37.1139 31.601 37.1139 32.6458 36.6582C37.1275 34.703 40 29.2357 40 24.5505C40 19.8282 35.9706 16 31 16ZM31 28C32.6569 28 34 26.6569 34 25C34 23.3431 32.6569 22 31 22C29.3431 22 28 23.3431 28 25C28 26.6569 29.3431 28 31 28Z" fill="white"/>
</svg>
