<svg width="224" height="63" viewBox="0 0 224 63" fill="none" xmlns="http://www.w3.org/2000/svg">
<path d="M29.8473 3.12236C29.7907 3.12655 29.4594 3.13913 29.1135 3.15171C28.7676 3.16429 28.3818 3.18316 28.2539 3.19364C28.1281 3.20412 27.8765 3.223 27.6983 3.23557C27.5201 3.24815 27.3084 3.26702 27.2266 3.2796C27.147 3.29008 26.952 3.31314 26.7968 3.32992C25.8869 3.43055 24.8659 3.60037 23.9036 3.81212C23.7715 3.84148 23.6206 3.87292 23.5682 3.8834C23.4424 3.91066 22.8553 4.05742 22.4675 4.16015C21.7672 4.34883 20.3982 4.78492 19.8741 4.98828C19.7671 5.03021 19.6036 5.09311 19.5114 5.12875C19.2682 5.221 18.9222 5.36147 18.6098 5.49355C17.3918 6.01139 16.0542 6.69486 14.9724 7.35108C14.0226 7.92763 13.402 8.34274 12.6347 8.91929C11.4166 9.83338 10.6157 10.5231 9.59473 11.5462C8.84837 12.2926 8.76031 12.387 8.33471 12.8692C7.51707 13.7958 6.7707 14.7519 6.14174 15.668C5.73081 16.2718 5.63228 16.4207 5.33457 16.8966C4.7727 17.796 4.38693 18.4816 3.91521 19.4208C3.52316 20.1987 3.00322 21.3518 2.75583 21.9891C2.71599 22.0918 2.66148 22.2365 2.63213 22.3078C2.58601 22.4294 2.46021 22.769 2.37216 23.0164C2.13735 23.6852 1.76416 24.8593 1.65095 25.2912C1.6237 25.4002 1.56709 25.6119 1.52726 25.7629C1.0178 27.6896 0.663481 29.8574 0.543979 31.7695C0.51253 32.2936 0.510434 34.6333 0.543979 35.0925C0.663481 36.8012 0.812335 37.9375 1.10375 39.4092C1.23164 40.0613 1.48323 41.0991 1.64256 41.6337C1.70127 41.8287 1.75368 42.009 1.75787 42.032C1.85432 42.4199 2.36377 43.8749 2.57762 44.3697C2.60068 44.4221 2.65729 44.5563 2.70551 44.6695C2.75373 44.7827 2.81872 44.9336 2.85227 45.0049C2.88581 45.0762 2.93823 45.1915 2.96967 45.2607C3.02418 45.3781 3.02838 45.3823 3.04305 45.3341C3.05353 45.3047 3.05982 45.2523 3.06192 45.2188C3.06402 45.1265 3.15836 44.8456 3.23384 44.7051C3.26948 44.638 3.35963 44.5059 3.4372 44.4095C3.88586 43.8434 4.49386 43.4367 5.28425 43.1767C5.52326 43.0971 5.67211 43.0635 6.34929 42.9335C6.68684 42.8685 6.86714 42.7952 7.22565 42.5729C7.3766 42.4807 7.559 42.3696 7.63447 42.3255C7.91331 42.1599 8.5863 41.7008 9.15446 41.2877C9.76246 40.8454 10.6828 40.2164 11.3474 39.7887C11.5592 39.6524 11.794 39.5015 11.8695 39.4533C12.0749 39.3212 12.4859 39.0759 12.8968 38.8411C14.2784 38.0507 15.5154 37.4595 16.7334 37.0087C17.6727 36.6628 17.8886 36.5705 18.1151 36.4238C18.2933 36.3085 18.8027 35.8074 19.3311 35.2246C21.22 33.149 22.0398 32.3837 22.7694 32.019C23.1279 31.8407 23.4025 31.7695 23.7338 31.7695C24.2978 31.7695 24.6059 31.9267 26.5746 33.2203C27.1197 33.5788 27.1134 33.5767 27.4782 33.5746C28.2078 33.5683 28.7739 33.6878 29.3022 33.9562C29.6439 34.1302 29.7844 34.2916 30.3295 35.1449C30.4616 35.3504 30.9102 36.0883 30.9543 36.1722C30.9627 36.189 31.0444 36.3315 31.1346 36.4867C31.3547 36.8661 31.3463 36.862 32.0067 37.0318C33.4072 37.3945 35.0425 38.0654 36.5017 38.8746C36.8938 39.0927 37.3256 39.3485 38.0825 39.816C38.7219 40.2122 40.3887 41.3569 41.4747 42.1473C41.9737 42.51 42.1875 42.6694 42.8458 43.16C43.261 43.4702 43.6257 43.7491 43.6572 43.7784C43.6886 43.8078 43.7201 43.8288 43.7243 43.8225C43.7369 43.812 43.6593 43.3193 43.5629 42.7763C43.4098 41.9272 43.3595 41.3737 43.3595 40.5498C43.3595 39.8977 43.3867 39.4826 43.4664 38.9732C43.697 37.4825 44.3281 36.0024 45.2422 34.8073C45.9781 33.845 47.1416 32.7926 48.3283 32.019C48.9111 31.6374 49.4017 31.3502 49.7749 31.1678C49.8965 31.1091 50.1103 31.0042 50.2508 30.935L50.5066 30.8092L50.3032 30.652C50.1921 30.566 49.9971 30.413 49.8692 30.3124C49.7434 30.2117 49.5652 30.0755 49.4772 30.0063C49.3095 29.8784 48.2067 28.979 47.7937 28.6351C47.6679 28.5303 47.0766 28.0397 46.4833 27.5449C45.89 27.0502 45.2296 26.4988 45.0158 26.3185C44.2358 25.6581 44.0681 25.5637 43.5524 25.4987C43.2295 25.4589 42.8941 25.5239 42.6592 25.6748C42.5418 25.7482 42.3175 25.9327 42.154 26.0857C41.8039 26.4128 41.0197 27.0942 40.4977 27.5261C40.1979 27.7714 38.9819 28.6876 38.6003 28.9538C38.2041 29.2306 38.1538 29.2473 37.9357 29.1656C37.8288 29.1257 37.7659 29.0712 37.4158 28.7274C37.1978 28.5135 36.8057 28.1592 36.5436 27.9412C35.2899 26.8908 34.7658 26.4254 33.5372 25.2681C33.25 24.9976 32.9711 24.7356 32.9187 24.6895C32.5204 24.333 32.2122 24.1234 31.9354 24.0248C31.7677 23.9661 31.7342 23.962 31.4616 23.9599C31.1534 23.9599 30.9543 23.9892 30.818 24.0563C30.6859 24.1234 30.493 24.2974 29.9836 24.809C29.2896 25.505 28.6795 26.0187 27.6166 26.7986C26.8744 27.3416 26.7486 27.4296 26.7151 27.4296C26.6459 27.4296 25.8974 26.8237 25.4026 26.3709C25.0986 26.092 24.1426 25.1423 23.7569 24.7356C23.6353 24.6077 23.4193 24.3813 23.2746 24.2324C23.13 24.0815 22.8344 23.767 22.6142 23.5301C22.3962 23.2932 22.1341 23.0143 22.0356 22.9116C21.6561 22.5153 20.4821 21.1589 20.1927 20.7836C19.8636 20.3601 18.9432 19.358 18.7692 19.2364C18.5616 19.0896 18.4233 19.0351 18.2534 19.0351C18.1486 19.033 18.0836 19.0456 18.0249 19.0728C17.8991 19.1357 17.3687 19.6661 17.0039 20.0917C16.8215 20.3056 16.5406 20.6306 16.377 20.815C15.7607 21.5111 15.5363 21.7732 15.1002 22.3036C14.3476 23.2156 14.0436 23.572 13.683 23.9494C13.5907 24.0479 13.3832 24.2743 13.2238 24.4525C12.2615 25.5239 9.94486 27.8888 8.81063 28.9559C7.65334 30.0461 6.9489 30.673 5.64276 31.7674C4.92155 32.3712 3.95295 33.1406 3.88796 33.1616C3.85861 33.17 3.83974 33.1658 3.83345 33.1448C3.81039 33.0882 3.88586 31.7233 3.94666 31.0986C4.05358 29.9874 4.19196 29.0649 4.4058 28.0586C4.44144 27.8909 4.48966 27.6602 4.51273 27.5449C4.54837 27.3793 4.70141 26.7587 4.82511 26.287C4.8335 26.2514 4.8901 26.0585 4.9509 25.8572C5.0117 25.656 5.06831 25.461 5.07669 25.4274C5.10395 25.3163 5.44988 24.2932 5.56099 23.9955C5.71824 23.5699 5.94256 23.0038 6.05368 22.7543C6.10609 22.6327 6.1627 22.5007 6.17738 22.4608C6.2256 22.3287 6.57782 21.5782 6.81682 21.096C6.92794 20.8758 6.97196 20.7878 7.18372 20.3957C7.22145 20.3266 7.29274 20.1945 7.34096 20.1022C7.39127 20.01 7.44788 19.9114 7.46675 19.8821C7.48562 19.8527 7.55271 19.7395 7.61351 19.6305C7.91541 19.0938 8.55276 18.1 8.94271 17.5591C9.64924 16.5737 10.4396 15.5905 11.0309 14.9657C12.142 13.7895 12.8905 13.0809 13.7752 12.366C13.9178 12.2507 14.0939 12.1081 14.1631 12.0494C14.4105 11.8461 15.2805 11.2045 15.7061 10.9173C16.7125 10.2317 17.7377 9.6384 18.8719 9.08072C20.0418 8.50627 20.9118 8.14776 22.1425 7.73684C23.1845 7.38672 24.2768 7.0953 25.2454 6.90662C25.367 6.88355 25.541 6.84791 25.6333 6.83114C26.0547 6.74728 26.7193 6.64245 27.1008 6.60052C27.2518 6.58374 27.3964 6.56488 27.4258 6.55859C27.4803 6.5481 27.7004 6.52714 28.3483 6.47472C29.2624 6.40135 30.7027 6.37828 31.7027 6.42231C32.4722 6.45795 33.6127 6.56278 34.1662 6.65293C34.3045 6.67599 34.5729 6.71792 34.7637 6.74727C35.1452 6.80388 35.8161 6.93387 36.1893 7.01983C36.9001 7.18546 36.9315 7.19384 37.7408 7.42027C38.1307 7.52929 39.0008 7.81441 39.397 7.96327C39.5417 8.01778 39.7304 8.08696 39.8163 8.12051C40.2545 8.28194 40.852 8.53563 41.546 8.8543C41.72 8.93397 42.6005 9.37424 42.7934 9.47906C44.1163 10.194 45.1709 10.867 46.2737 11.7035C46.7747 12.0809 47.6805 12.8335 48.0348 13.1648C48.0977 13.2235 48.3409 13.4478 48.5715 13.6617C48.9132 13.9782 49.6554 14.7477 50.1439 15.2907C50.2948 15.4584 50.6827 15.9196 50.8798 16.1691C50.9867 16.3033 51.1355 16.4878 51.2089 16.58C51.3368 16.7394 51.6031 17.0979 51.8085 17.3851C51.861 17.4585 51.9448 17.578 51.9972 17.6514C52.3578 18.1566 53.0119 19.186 53.2719 19.6515C53.3013 19.7039 53.3642 19.8171 53.4145 19.9031C53.6493 20.3182 54.1734 21.3434 54.4124 21.8633C54.6619 22.4063 54.9366 23.0688 55.2699 23.9389C55.6368 24.897 56.1735 26.7566 56.3392 27.6393C56.3958 27.9391 56.3937 27.9328 56.4272 27.9328C56.4608 27.9328 56.8193 27.7273 57.0709 27.568C57.8717 27.0543 58.6223 26.3143 59.1674 25.5029L59.2554 25.3708L59.2093 25.1884C59.1842 25.0899 59.1464 24.9473 59.1255 24.8719C59.1045 24.7964 59.0668 24.6559 59.0416 24.5574C59.0164 24.4588 58.9787 24.3267 58.9577 24.2639C58.9368 24.201 58.9011 24.0877 58.8781 24.0123C58.6831 23.3875 58.6181 23.1904 58.4755 22.7963C57.5468 20.2301 56.3287 17.8778 54.8108 15.7205C54.2405 14.9091 53.3956 13.8231 52.9616 13.3409C52.8526 13.2193 52.6325 12.974 52.4752 12.7958C51.9867 12.2423 50.7351 10.997 50.1879 10.521C49.1166 9.59018 48.4373 9.05976 47.3848 8.33016C46.5693 7.76619 45.7286 7.23787 45.0158 6.84581C44.848 6.75357 44.6342 6.63406 44.5377 6.58165C44.3071 6.45166 43.3846 5.99252 43.0261 5.8248C42.2483 5.46629 41.8626 5.30276 41.2441 5.06585C39.8352 4.52704 38.3697 4.09097 36.9755 3.79325C36.1537 3.61715 35.7616 3.54586 34.7951 3.4012C34.1138 3.29847 33.1389 3.20203 32.3631 3.16219C31.818 3.13284 30.0842 3.10559 29.8473 3.12236ZM28.3797 3.29847C28.386 3.30895 28.3818 3.31944 28.3713 3.31944C28.3588 3.31944 28.3483 3.30895 28.3483 3.29847C28.3483 3.28589 28.3525 3.2775 28.3567 3.2775C28.3629 3.2775 28.3734 3.28589 28.3797 3.29847ZM28.4804 3.29218C28.4657 3.29638 28.4405 3.29638 28.4279 3.29218C28.4133 3.28589 28.4237 3.2817 28.4531 3.2817C28.4824 3.2817 28.4929 3.28589 28.4804 3.29218ZM27.8556 3.31944C27.864 3.33201 27.8304 3.33831 27.7675 3.33831L27.6669 3.33411L27.7508 3.31944C27.7969 3.31105 27.8367 3.30266 27.8388 3.30057C27.8409 3.30057 27.8493 3.30685 27.8556 3.31944ZM27.9709 3.30686C27.9709 3.31105 27.9562 3.32153 27.9373 3.32782C27.9206 3.33411 27.9122 3.33201 27.9185 3.31944C27.9311 3.29847 27.9709 3.29008 27.9709 3.30686ZM28.082 3.31314C28.0673 3.31734 28.038 3.31734 28.0191 3.31314C27.9981 3.30686 28.0107 3.30266 28.0443 3.30266C28.0799 3.30266 28.0946 3.30686 28.082 3.31314ZM32.5833 3.31944C32.5833 3.32992 32.5791 3.3404 32.5749 3.3404C32.5686 3.3404 32.5581 3.32992 32.5518 3.31944C32.5455 3.30685 32.5497 3.29847 32.5602 3.29847C32.5728 3.29847 32.5833 3.30685 32.5833 3.31944ZM32.7196 3.31944C32.7258 3.32992 32.7216 3.3404 32.7112 3.3404C32.6986 3.3404 32.6881 3.32992 32.6881 3.31944C32.6881 3.30685 32.6923 3.29847 32.6965 3.29847C32.7028 3.29847 32.7133 3.30685 32.7196 3.31944ZM32.8286 3.31105C32.8223 3.31734 32.8034 3.31944 32.7887 3.31314C32.772 3.30686 32.7783 3.30057 32.8013 3.30057C32.8244 3.29847 32.837 3.30476 32.8286 3.31105ZM33.2709 3.31314C33.25 3.31734 33.2164 3.31734 33.1976 3.31314C33.1766 3.30686 33.1934 3.30266 33.2332 3.30266C33.273 3.30266 33.2898 3.30686 33.2709 3.31314ZM27.5097 3.36137C27.5097 3.37394 27.4677 3.38023 27.4195 3.38023C27.3692 3.37814 27.3168 3.38233 27.3042 3.39072C27.2874 3.4012 27.2832 3.39491 27.2916 3.37395C27.3063 3.33621 27.5097 3.32573 27.5097 3.36137ZM27.017 3.4033C26.9939 3.41378 26.9562 3.42216 26.9331 3.42216H26.8912L26.9331 3.4033C26.9562 3.39281 26.9939 3.38443 27.017 3.38443H27.0589L27.017 3.4033ZM27.17 3.39701C27.149 3.4012 27.1155 3.4012 27.0966 3.39701C27.0757 3.39072 27.0924 3.38652 27.1323 3.38652C27.1721 3.38652 27.1889 3.39072 27.17 3.39701ZM33.7573 3.39072C33.7573 3.39701 33.749 3.40749 33.7364 3.41378C33.7259 3.42007 33.7154 3.41588 33.7154 3.4054C33.7154 3.39281 33.7259 3.38233 33.7364 3.38233C33.749 3.38233 33.7573 3.38652 33.7573 3.39072ZM25.302 3.6465C25.2957 3.65278 25.2768 3.65488 25.2622 3.64859C25.2454 3.6423 25.2517 3.63601 25.2747 3.63601C25.2978 3.63392 25.3104 3.64021 25.302 3.6465ZM23.9183 3.91905C23.912 3.92534 23.8931 3.92743 23.8784 3.92114C23.8617 3.91485 23.868 3.90856 23.891 3.90856C23.9141 3.90647 23.9267 3.91276 23.9183 3.91905ZM23.652 3.97775C23.652 3.98194 23.629 3.99033 23.5996 3.99452C23.5703 4.00081 23.5472 3.99662 23.5472 3.98823C23.5472 3.97775 23.5703 3.96936 23.5996 3.96936C23.629 3.96936 23.652 3.97355 23.652 3.97775ZM37.4619 3.99662C37.4661 4.00291 37.4284 4.0071 37.376 4.0071C37.3236 4.0071 37.2795 3.99871 37.2795 3.98823C37.2795 3.96936 37.441 3.97775 37.4619 3.99662ZM23.4151 4.02387C23.4088 4.03016 23.39 4.03226 23.3753 4.02597C23.3585 4.01968 23.3648 4.01339 23.3879 4.01339C23.4109 4.0113 23.4235 4.01758 23.4151 4.02387ZM37.6255 4.02807C37.6569 4.04903 37.6527 4.10564 37.6213 4.10354C37.5227 4.09515 37.5227 4.09515 37.5479 4.07C37.5688 4.04903 37.5793 4.04903 37.594 4.07419C37.6108 4.10144 37.615 4.10144 37.615 4.07C37.615 4.05113 37.5982 4.03016 37.5793 4.02597C37.5521 4.01968 37.55 4.01549 37.573 4.01339C37.5898 4.01339 37.615 4.01968 37.6255 4.02807ZM23.2432 4.07419C23.2369 4.08467 23.2201 4.09516 23.2097 4.09516C23.1971 4.09516 23.195 4.08467 23.2013 4.07419C23.2076 4.06161 23.2243 4.05322 23.2348 4.05322C23.2474 4.05322 23.2495 4.06161 23.2432 4.07419ZM37.7827 4.07C37.7827 4.07838 37.7638 4.08677 37.7408 4.08677C37.7177 4.08677 37.6988 4.07838 37.6988 4.07C37.6988 4.06161 37.7177 4.05322 37.7408 4.05322C37.7638 4.05322 37.7827 4.06161 37.7827 4.07ZM37.9148 4.13708C37.9211 4.16014 37.9169 4.17902 37.9064 4.17902C37.8959 4.17902 37.8875 4.16014 37.8875 4.13708C37.8875 4.11402 37.8917 4.09516 37.8959 4.09516C37.9001 4.09516 37.9085 4.11402 37.9148 4.13708ZM38.0972 4.15805C38.0972 4.16853 38.0825 4.17273 38.0657 4.16644C38.049 4.15805 38.0343 4.14967 38.0343 4.14547C38.0343 4.14128 38.049 4.13708 38.0657 4.13708C38.0825 4.13708 38.0972 4.14547 38.0972 4.15805ZM39.5019 4.58575C39.5019 4.59203 39.4935 4.60252 39.4809 4.60881C39.4704 4.61509 39.4599 4.6109 39.4599 4.60042C39.4599 4.58784 39.4704 4.57736 39.4809 4.57736C39.4935 4.57736 39.5019 4.58155 39.5019 4.58575ZM39.6591 4.66122C39.6654 4.6717 39.6612 4.68219 39.6507 4.68219C39.6381 4.68219 39.6276 4.6717 39.6276 4.66122C39.6276 4.64864 39.6318 4.64025 39.636 4.64025C39.6423 4.64025 39.6528 4.64864 39.6591 4.66122ZM41.5669 5.29018C41.5732 5.30067 41.5984 5.31115 41.6194 5.31115C41.6403 5.31115 41.6655 5.32163 41.6718 5.33211C41.6948 5.36985 41.5879 5.34469 41.5481 5.30486C41.5271 5.28599 41.5208 5.26921 41.5334 5.26921C41.5439 5.26921 41.5607 5.2776 41.5669 5.29018ZM41.7514 5.38662C41.7431 5.40759 41.7326 5.41178 41.72 5.3992C41.6948 5.37405 41.7179 5.32582 41.7452 5.34259C41.7556 5.34888 41.7577 5.36985 41.7514 5.38662ZM41.8479 5.4034C41.8688 5.42646 41.8626 5.43275 41.8206 5.42855C41.7829 5.42646 41.7745 5.42017 41.7913 5.3992C41.8185 5.36776 41.8185 5.36775 41.8479 5.4034ZM42.0114 5.51242C41.9925 5.53128 41.9548 5.49984 41.9548 5.46629C41.9548 5.43904 41.959 5.43904 41.9883 5.46839C42.0072 5.48726 42.0177 5.50613 42.0114 5.51242ZM42.1728 5.57531C42.1791 5.59208 42.177 5.60047 42.1645 5.59418C42.1519 5.58789 42.1435 5.57322 42.1435 5.56063C42.1435 5.53128 42.1582 5.53757 42.1728 5.57531ZM43.458 6.16234C43.4517 6.16863 43.4329 6.17073 43.4182 6.16444C43.4014 6.15815 43.4077 6.15186 43.4308 6.15186C43.4538 6.14977 43.4664 6.15605 43.458 6.16234ZM43.7683 6.33426C43.762 6.34055 43.7453 6.33426 43.7306 6.31958C43.7117 6.29861 43.7138 6.29652 43.7432 6.3091C43.7641 6.31539 43.7746 6.32797 43.7683 6.33426ZM32.6671 6.33845C32.6671 6.34893 32.6567 6.35942 32.6441 6.35942C32.6336 6.35942 32.6294 6.34893 32.6357 6.33845C32.642 6.32587 32.6525 6.31749 32.6588 6.31749C32.6629 6.31749 32.6671 6.32587 32.6671 6.33845ZM33.4072 6.39087C33.4156 6.40764 33.4114 6.4265 33.4009 6.43279C33.3883 6.44118 33.38 6.42651 33.38 6.40345C33.38 6.35103 33.3925 6.34684 33.4072 6.39087ZM33.6903 6.40973C33.7385 6.40554 33.7783 6.41183 33.7783 6.42231C33.7783 6.43489 33.7175 6.44328 33.6399 6.44328C33.5183 6.44328 33.5037 6.43908 33.5267 6.41183C33.5435 6.39296 33.5624 6.38667 33.577 6.39715C33.5896 6.40763 33.6399 6.41183 33.6903 6.40973ZM27.3 6.42231C27.3 6.4328 27.2895 6.44328 27.2769 6.44328C27.2665 6.44328 27.2623 6.4328 27.2686 6.42231C27.2748 6.40973 27.2853 6.40134 27.2916 6.40134C27.2958 6.40134 27.3 6.40973 27.3 6.42231ZM33.2856 6.42231C33.2919 6.4328 33.2877 6.44328 33.2772 6.44328C33.2647 6.44328 33.2542 6.4328 33.2542 6.42231C33.2542 6.40973 33.2584 6.40134 33.2626 6.40134C33.2688 6.40134 33.2793 6.40973 33.2856 6.42231ZM33.359 6.42231C33.359 6.4328 33.3485 6.44328 33.3359 6.44328C33.3255 6.44328 33.3213 6.4328 33.3275 6.42231C33.3338 6.40973 33.3443 6.40134 33.3506 6.40134C33.3548 6.40134 33.359 6.40973 33.359 6.42231ZM33.8412 6.42231C33.8412 6.4328 33.8328 6.44328 33.8202 6.44328C33.8098 6.44328 33.7993 6.4328 33.7993 6.42231C33.7993 6.40973 33.8098 6.40134 33.8202 6.40134C33.8328 6.40134 33.8412 6.40973 33.8412 6.42231ZM33.9586 6.46215C33.9523 6.47263 33.9607 6.48521 33.9775 6.4936C33.9984 6.49988 34.0089 6.4915 34.0089 6.47054C34.0089 6.44118 34.0131 6.44118 34.0404 6.47682C34.0571 6.49779 34.0718 6.52085 34.0718 6.52714C34.0718 6.54391 33.8538 6.52504 33.8328 6.50617C33.8223 6.49569 33.8328 6.4915 33.8559 6.49779C33.8789 6.50408 33.9083 6.49569 33.923 6.47682C33.9523 6.44118 33.9775 6.4307 33.9586 6.46215ZM34.1641 6.50617C34.1808 6.53972 34.1871 6.56907 34.1787 6.56907C34.1641 6.56907 34.1138 6.47892 34.1138 6.45376C34.1138 6.42651 34.1347 6.44957 34.1641 6.50617ZM34.3653 6.51456C34.3297 6.5502 34.3423 6.57536 34.3863 6.56278C34.4094 6.55649 34.4324 6.56068 34.4387 6.56907C34.4534 6.59213 34.5331 6.56907 34.5331 6.54181C34.5331 6.52924 34.5456 6.53762 34.5624 6.55859C34.6001 6.611 34.5897 6.62777 34.5184 6.61938C34.4869 6.61729 34.4345 6.6152 34.4031 6.6131C34.3674 6.611 34.3423 6.59632 34.3339 6.56907C34.3255 6.54601 34.3108 6.53133 34.3003 6.53762C34.2899 6.54601 34.2815 6.54182 34.2815 6.53133C34.2815 6.50408 34.2961 6.4936 34.3423 6.4936C34.3716 6.4936 34.3779 6.50198 34.3653 6.51456ZM34.4492 6.50617C34.4492 6.51665 34.4408 6.52714 34.4282 6.52714C34.4177 6.52714 34.4073 6.51665 34.4073 6.50617C34.4073 6.4936 34.4177 6.48521 34.4282 6.48521C34.4408 6.48521 34.4492 6.4936 34.4492 6.50617ZM26.5243 6.52714C26.5243 6.53762 26.5138 6.54811 26.5012 6.54811C26.4907 6.54811 26.4865 6.53762 26.4928 6.52714C26.4991 6.51456 26.5096 6.50617 26.5159 6.50617C26.5201 6.50617 26.5243 6.51456 26.5243 6.52714ZM26.713 6.56068C26.713 6.56488 26.6983 6.56907 26.6815 6.56907C26.6647 6.56907 26.6501 6.56068 26.6501 6.54811C26.6501 6.53762 26.6647 6.53343 26.6815 6.53972C26.6983 6.5481 26.713 6.55649 26.713 6.56068ZM34.7134 6.57536C34.7301 6.56907 34.7427 6.57536 34.7427 6.58794C34.7427 6.60052 34.728 6.611 34.7092 6.611C34.6924 6.611 34.684 6.61939 34.6903 6.63197C34.705 6.65712 34.6798 6.65922 34.6484 6.63616C34.619 6.61519 34.6085 6.53972 34.6358 6.55859C34.6484 6.56488 34.6609 6.55859 34.6609 6.54391C34.663 6.52924 34.6672 6.53343 34.6735 6.5523C34.6777 6.57327 34.6945 6.58375 34.7134 6.57536ZM26.3041 6.59213C26.2832 6.62358 26.2517 6.6131 26.2643 6.57956C26.2727 6.56278 26.2853 6.5544 26.2958 6.56068C26.3062 6.56697 26.3104 6.58165 26.3041 6.59213ZM34.7993 6.61519C34.793 6.63197 34.7867 6.62568 34.7867 6.60262C34.7846 6.57955 34.7909 6.56697 34.7972 6.57536C34.8035 6.58165 34.8056 6.60052 34.7993 6.61519ZM34.9608 6.60052C34.967 6.61729 34.9629 6.63197 34.9545 6.63197C34.944 6.63197 34.9314 6.61729 34.923 6.60052C34.9167 6.58374 34.9209 6.56907 34.9293 6.56907C34.9398 6.56907 34.9524 6.58374 34.9608 6.60052ZM44.4392 6.6718C44.4266 6.68229 44.3868 6.65084 44.3868 6.62987C44.3868 6.61939 44.3994 6.62148 44.4161 6.63616C44.4329 6.65083 44.4413 6.66761 44.4392 6.6718ZM35.1977 6.70954C35.1914 6.7305 35.1872 6.71792 35.1872 6.68438C35.1872 6.64874 35.1914 6.63406 35.1977 6.64664C35.2019 6.66132 35.2019 6.69067 35.1977 6.70954ZM35.0362 6.6739C35.0362 6.68438 35.0153 6.69486 34.9901 6.69276C34.944 6.69276 34.944 6.69067 34.9838 6.6739C35.0069 6.66341 35.0278 6.65503 35.032 6.65503C35.0341 6.65294 35.0362 6.66132 35.0362 6.6739ZM35.617 6.76195C35.6316 6.76405 35.6379 6.77243 35.6296 6.78292C35.6212 6.79969 35.5813 6.79969 35.4346 6.77872C35.4283 6.77872 35.4388 6.76824 35.4555 6.75776C35.4723 6.74518 35.51 6.74099 35.5394 6.74727C35.5687 6.75356 35.6023 6.75985 35.617 6.76195ZM35.7176 6.79969C35.7323 6.79969 35.7511 6.78711 35.7553 6.77243C35.7616 6.75985 35.7679 6.77034 35.7679 6.7976C35.77 6.83324 35.7616 6.84372 35.7365 6.83323C35.7176 6.82695 35.6945 6.82066 35.6841 6.82066C35.6736 6.82066 35.6652 6.80388 35.6673 6.78292C35.6673 6.76195 35.6736 6.75776 35.6799 6.77243C35.6841 6.78711 35.7029 6.79969 35.7176 6.79969ZM24.9938 6.84162C24.9938 6.8521 24.9854 6.86259 24.9749 6.86259C24.9624 6.86259 24.9477 6.8521 24.9414 6.84162C24.9351 6.82904 24.9435 6.82066 24.9603 6.82066C24.9791 6.82066 24.9938 6.82904 24.9938 6.84162ZM36.0342 6.84581C36.0405 6.8542 36.0635 6.86259 36.0866 6.86259C36.1076 6.86259 36.1264 6.87726 36.1264 6.89404C36.1264 6.92129 36.1201 6.92339 36.0803 6.90032C36.0258 6.86887 36.0195 6.86888 35.9 6.86468C35.8455 6.86259 35.814 6.8542 35.8224 6.84162C35.8371 6.81646 36.0195 6.82066 36.0342 6.84581ZM36.29 6.915C36.3529 6.9108 36.4137 6.94435 36.3529 6.94854C36.2585 6.95693 36.1432 6.92967 36.1579 6.90242C36.1663 6.88984 36.1809 6.88984 36.1956 6.90032C36.2103 6.9108 36.2522 6.91919 36.29 6.915ZM24.4844 6.9171C24.4781 6.92339 24.4592 6.92548 24.4445 6.91919C24.4277 6.9129 24.434 6.90662 24.4571 6.90662C24.4802 6.90452 24.4927 6.9108 24.4844 6.9171ZM36.4409 6.94854C36.4409 6.95903 36.4514 6.96322 36.4661 6.95483C36.4807 6.94645 36.4828 6.94854 36.4745 6.96322C36.4535 6.99886 36.399 6.99467 36.399 6.95693C36.399 6.94016 36.4095 6.92548 36.4199 6.92548C36.4325 6.92548 36.4409 6.93596 36.4409 6.94854ZM24.1447 6.98838C24.151 6.99886 24.1426 7.00934 24.1258 7.00934C24.107 7.00934 24.0923 6.99886 24.0923 6.98838C24.0923 6.9758 24.1007 6.96741 24.1112 6.96741C24.1237 6.96741 24.1384 6.9758 24.1447 6.98838ZM36.7554 7.00934C36.7156 7.0345 36.6506 7.0366 36.6506 7.01353C36.6506 7.00305 36.6799 6.99467 36.7177 6.99257C36.7659 6.99047 36.7764 6.99677 36.7554 7.00934ZM36.9441 7.00934C36.9441 7.01982 36.9399 7.03031 36.9357 7.03031C36.9294 7.03031 36.9189 7.01982 36.9126 7.00934C36.9063 6.99677 36.9105 6.98838 36.921 6.98838C36.9336 6.98838 36.9441 6.99677 36.9441 7.00934ZM37.2774 7.08482C37.2816 7.08901 37.2628 7.0932 37.2313 7.0932C37.202 7.0932 37.1705 7.08272 37.1642 7.07224C37.1516 7.05127 37.2523 7.06385 37.2774 7.08482ZM36.9546 7.0932C36.9608 7.10369 36.9525 7.11417 36.9357 7.11417C36.9168 7.11417 36.9021 7.10369 36.9021 7.0932C36.9021 7.08062 36.9105 7.07224 36.921 7.07224C36.9336 7.07224 36.9483 7.08062 36.9546 7.0932ZM37.0908 7.0974C37.0908 7.10998 37.072 7.11417 37.0489 7.10788C37.0258 7.10159 37.007 7.10788 37.007 7.12046C37.007 7.13304 37.0007 7.13723 36.9944 7.12885C36.9734 7.10788 37.0007 7.08063 37.0468 7.07853C37.072 7.07644 37.0908 7.08482 37.0908 7.0974ZM37.4431 7.16658C37.4368 7.17287 37.4242 7.16239 37.4179 7.14143C37.4053 7.11208 37.4074 7.10998 37.4284 7.12885C37.4431 7.14352 37.4493 7.16029 37.4431 7.16658ZM37.3718 7.17916C37.3655 7.18965 37.3424 7.19803 37.3194 7.19803C37.2984 7.19803 37.2795 7.18965 37.2795 7.17916C37.2795 7.16868 37.3026 7.16029 37.3319 7.16029C37.3592 7.16029 37.3781 7.16868 37.3718 7.17916ZM23.3061 7.23787C23.2998 7.25045 23.283 7.26093 23.2705 7.26093C23.2579 7.26093 23.2579 7.24835 23.2746 7.22948C23.304 7.19384 23.3292 7.20222 23.3061 7.23787ZM37.8037 7.23996C37.8037 7.25045 37.7995 7.26093 37.7953 7.26093C37.789 7.26093 37.7785 7.25045 37.7722 7.23996C37.7659 7.22738 37.7701 7.21899 37.7806 7.21899C37.7932 7.21899 37.8037 7.22738 37.8037 7.23996ZM37.6779 7.26512C37.6779 7.28608 37.55 7.28608 37.5164 7.26512C37.5039 7.25673 37.5332 7.25044 37.5856 7.24835C37.6359 7.24835 37.6779 7.25673 37.6779 7.26512ZM37.9923 7.34898C37.9923 7.37205 37.8728 7.36995 37.8582 7.34689C37.8519 7.33641 37.8791 7.32802 37.919 7.33012C37.9588 7.33221 37.9923 7.3406 37.9923 7.34898ZM38.1622 7.44542C38.1475 7.44962 38.1244 7.44333 38.1139 7.43284C38.0972 7.41607 38.1056 7.41397 38.1412 7.42236C38.1685 7.43075 38.1789 7.43913 38.1622 7.44542ZM38.5374 7.52509C38.5374 7.53138 38.4997 7.53348 38.4557 7.52929C38.4096 7.52719 38.376 7.5188 38.3802 7.51251C38.3886 7.49784 38.5374 7.51042 38.5374 7.52509ZM39.4327 7.86054C39.4264 7.86683 39.4075 7.86892 39.3928 7.86263C39.3761 7.85634 39.3824 7.85006 39.4054 7.85006C39.4285 7.84796 39.4411 7.85425 39.4327 7.86054ZM57.8633 21.5279C57.857 21.5342 57.8445 21.5237 57.8382 21.5027C57.8256 21.4734 57.8277 21.4713 57.8487 21.4901C57.8633 21.5048 57.8696 21.5216 57.8633 21.5279ZM58.0835 22.1149C58.0688 22.1589 58.0583 22.1547 58.0625 22.1065C58.0625 22.0835 58.073 22.0688 58.0814 22.0751C58.0898 22.0814 58.0919 22.0981 58.0835 22.1149ZM18.0228 22.3392C18.027 22.3539 18.0417 22.4944 18.0543 22.6495C18.0857 23.0395 18.1549 23.3707 18.3478 24.0437C18.4044 24.2387 18.4945 24.5658 18.547 24.767C18.6015 24.9683 18.6665 25.2094 18.6937 25.3016C18.7776 25.5868 18.8153 25.8153 18.8153 26.0564C18.8174 26.5051 18.6686 26.8615 17.8844 28.2997C17.4735 29.0544 16.6601 30.6939 16.4819 31.13C16.3707 31.3984 16.2932 31.5472 16.1695 31.7212C16.0374 31.9078 15.9871 31.9414 15.9326 31.8743C15.9116 31.8491 15.8948 31.8051 15.8948 31.7799C15.8948 31.7527 15.8823 31.6667 15.8655 31.5871C15.8487 31.5095 15.811 31.2558 15.7795 31.0252C15.7502 30.7946 15.7061 30.4696 15.6852 30.3019C15.6621 30.1342 15.6202 29.8134 15.5887 29.5891C15.5237 29.0964 15.4588 28.6855 15.4441 28.6687C15.4378 28.6624 15.4147 28.6687 15.3938 28.6813C15.3749 28.6938 15.052 28.8616 14.6767 29.0544C13.5593 29.6331 12.5236 30.1887 10.8736 31.0986C10.5969 31.2516 10.3243 31.4026 10.2656 31.434C10.209 31.4655 10.0811 31.5367 9.98259 31.5913C8.8253 32.2391 7.99927 32.6626 7.8609 32.6857C7.798 32.694 7.78123 32.6898 7.78123 32.6647C7.78123 32.6144 9.12721 31.3187 10.1818 30.3543C10.3327 30.218 10.6053 29.9643 10.7898 29.7903C10.9743 29.6142 11.2615 29.3459 11.4292 29.1907C11.5948 29.0356 11.8611 28.784 12.0162 28.6351C12.2615 28.4003 12.5613 28.1194 12.9702 27.7462C13.7417 27.0376 14.6495 26.1403 15.0415 25.7021C15.7963 24.8509 16.094 24.5238 16.7481 23.8173C17.0249 23.5196 17.2974 23.1799 17.7083 22.6181C17.8341 22.4462 17.9578 22.3141 17.9935 22.3141C18.004 22.3141 18.0186 22.3267 18.0228 22.3392ZM58.4965 23.2009C58.4965 23.2114 58.4881 23.2114 58.4755 23.2051C58.465 23.1988 58.4546 23.1758 58.4546 23.1569C58.4546 23.1254 58.4588 23.1254 58.4755 23.1527C58.486 23.1695 58.4965 23.1925 58.4965 23.2009ZM58.5279 23.2575C58.5342 23.2701 58.5258 23.2722 58.5091 23.2659C58.4713 23.2512 58.465 23.2366 58.4944 23.2366C58.507 23.2366 58.5217 23.2449 58.5279 23.2575ZM58.5762 23.4252C58.572 23.4378 58.5426 23.4085 58.5112 23.3581L58.4525 23.268L58.5196 23.333C58.5552 23.3707 58.5825 23.4106 58.5762 23.4252ZM58.6181 23.5426C58.6097 23.5489 58.5929 23.5322 58.5804 23.5049C58.5552 23.4588 58.5552 23.4588 58.5929 23.4923C58.6139 23.5133 58.6244 23.5343 58.6181 23.5426ZM58.6516 23.6957C58.637 23.7104 58.6265 23.6894 58.6139 23.6244L58.6013 23.5615L58.6307 23.6244C58.6474 23.658 58.6558 23.6915 58.6516 23.6957ZM31.7803 24.1066C31.7803 24.1234 31.7614 24.1381 31.7405 24.1381C31.7195 24.1381 31.7027 24.1276 31.7027 24.1171C31.7027 24.1045 31.7132 24.0961 31.7258 24.0961C31.7363 24.0961 31.7405 24.0877 31.7342 24.0752C31.7279 24.0647 31.7342 24.0605 31.751 24.0668C31.7656 24.071 31.7803 24.0898 31.7803 24.1066ZM31.969 24.1234C31.9732 24.1297 31.9396 24.1318 31.8935 24.1318C31.8474 24.1318 31.8138 24.1255 31.818 24.115C31.8285 24.1003 31.9501 24.1066 31.969 24.1234ZM43.5167 25.6266C43.458 25.6518 43.4014 25.6518 43.4014 25.6266C43.4014 25.614 43.4371 25.6056 43.4811 25.6077C43.544 25.6077 43.5503 25.6119 43.5167 25.6266ZM43.2861 25.6476C43.2798 25.6581 43.2568 25.6685 43.2379 25.6664C43.2085 25.6664 43.2106 25.6622 43.2442 25.6476C43.3008 25.6245 43.3008 25.6245 43.2861 25.6476ZM30.9354 26.8887C30.9794 27.1235 31.0025 27.22 31.057 27.4191C31.1933 27.9223 31.5078 28.8406 31.751 29.4423C32.1661 30.4738 32.6546 31.3103 33.273 32.0483C33.4617 32.2747 33.4869 32.3355 33.3925 32.3355C33.3422 32.3355 33.2437 32.2747 32.9921 32.086C32.8999 32.019 32.5183 31.7422 32.143 31.4739C31.1492 30.7631 31.0067 30.6583 30.2666 30.1048C29.0296 29.1802 28.9039 29.0586 28.8514 28.7442C28.8158 28.5219 28.8472 28.4905 29.9731 27.589C30.3316 27.3017 30.6608 27.0334 30.7069 26.9894C30.797 26.9055 30.8851 26.8426 30.9102 26.8426C30.9186 26.8426 30.9312 26.8636 30.9354 26.8887ZM1.06182 28.8972C1.06811 28.9077 1.06392 28.9182 1.05344 28.9182C1.04086 28.9182 1.03038 28.9077 1.03038 28.8972C1.03038 28.8846 1.03457 28.8762 1.03876 28.8762C1.04505 28.8762 1.05553 28.8846 1.06182 28.8972ZM3.87119 30.6331C3.8649 30.6394 3.84812 30.6331 3.83345 30.6185C3.81458 30.5975 3.81667 30.5954 3.84603 30.608C3.86699 30.6143 3.87747 30.6268 3.87119 30.6331ZM3.8607 30.7338C3.8607 30.7505 3.85022 30.7589 3.83974 30.7526C3.82716 30.7443 3.82296 30.7296 3.82925 30.7191C3.84812 30.6897 3.8607 30.696 3.8607 30.7338ZM3.83974 30.9812C3.82296 30.9979 3.81877 30.9896 3.82716 30.9413C3.83974 30.8554 3.84393 30.8491 3.85441 30.9078C3.8607 30.935 3.85441 30.9665 3.83974 30.9812ZM3.85022 31.1195C3.85441 31.1678 3.84812 31.1992 3.83764 31.1908C3.82716 31.1845 3.82296 31.172 3.82925 31.1615C3.83554 31.151 3.83135 31.1384 3.82296 31.1321C3.81248 31.1258 3.80829 31.0965 3.81458 31.0671C3.82716 30.9937 3.84393 31.0147 3.85022 31.1195ZM3.79781 31.3921C3.79781 31.4026 3.79361 31.4131 3.78942 31.4131C3.78313 31.4131 3.77265 31.4026 3.76636 31.3921C3.76007 31.3795 3.76426 31.3711 3.77474 31.3711C3.78732 31.3711 3.79781 31.3795 3.79781 31.3921ZM3.77684 32.1573C3.77684 32.1741 3.76217 32.1888 3.7433 32.1888C3.71394 32.1888 3.71394 32.1825 3.73491 32.1573C3.74959 32.1406 3.76426 32.1259 3.76845 32.1259C3.77265 32.1259 3.77684 32.1406 3.77684 32.1573ZM3.73491 32.2307C3.73491 32.2412 3.72652 32.2517 3.71394 32.2517C3.70346 32.2517 3.69298 32.2412 3.69298 32.2307C3.69298 32.2181 3.70346 32.2097 3.71394 32.2097C3.72652 32.2097 3.73491 32.2181 3.73491 32.2307ZM28.6565 33.606C28.6502 33.6123 28.6313 33.6144 28.6166 33.6081C28.5999 33.6018 28.6061 33.5955 28.6292 33.5955C28.6523 33.5935 28.6648 33.5997 28.6565 33.606ZM6.16689 42.8182C6.16689 42.8287 6.15851 42.8392 6.14593 42.8392C6.13545 42.8392 6.12496 42.8287 6.12496 42.8182C6.12496 42.8056 6.13545 42.7973 6.14593 42.7973C6.15851 42.7973 6.16689 42.8056 6.16689 42.8182ZM6.46041 42.8182C6.46041 42.8287 6.45202 42.8392 6.43944 42.8392C6.42896 42.8392 6.41848 42.8287 6.41848 42.8182C6.41848 42.8056 6.42896 42.7973 6.43944 42.7973C6.45202 42.7973 6.46041 42.8056 6.46041 42.8182ZM6.27172 42.8371C6.27172 42.8497 6.26333 42.8643 6.25076 42.8706C6.24027 42.8769 6.22979 42.8685 6.22979 42.8518C6.22979 42.8329 6.24027 42.8182 6.25076 42.8182C6.26333 42.8182 6.27172 42.8266 6.27172 42.8371Z" fill="#16A34A"/>
<path d="M25.193 13.5715C25.0546 13.5799 24.9162 13.5988 24.8848 13.6114C24.7569 13.6617 24.7632 13.5673 24.7632 15.4584C24.7632 17.3809 24.7506 17.2111 24.9079 17.3096L24.9833 17.3558L26.7402 17.3621L28.495 17.3683L28.4908 19.2196C28.4846 20.7626 28.4888 21.0771 28.5139 21.1044C28.5307 21.1274 28.5747 21.14 28.6292 21.14C28.6774 21.14 28.7299 21.1526 28.7424 21.1652C28.7613 21.184 28.7781 21.1861 28.8053 21.1694C28.8305 21.1526 29.3399 21.1463 30.4763 21.1463C31.5539 21.1442 32.1304 21.1379 32.1661 21.1232C32.273 21.0813 32.3003 20.9786 32.3003 20.6054C32.3003 20.4209 32.3024 19.6179 32.3065 18.8192L32.3107 17.3683L34.1305 17.3621C35.1306 17.3579 35.965 17.36 35.9839 17.3621C36.0153 17.3704 36.0195 17.5025 36.0258 19.1651C36.0321 20.7878 36.0363 20.9702 36.0677 21.0394C36.0866 21.0813 36.1222 21.1274 36.1474 21.14C36.2145 21.1757 39.5983 21.161 39.6654 21.1232C39.7765 21.0604 39.7744 21.0897 39.7744 19.1672V17.3893L39.7241 17.3306C39.678 17.2782 39.657 17.2719 39.4872 17.2572C39.3866 17.2509 38.5878 17.2426 37.7156 17.2426L36.1264 17.2405V15.4815C36.1264 13.7518 36.1264 13.7225 36.0845 13.6701C35.9986 13.561 36.0153 13.5631 34.162 13.561H32.4386L32.3757 13.6218L32.3107 13.6847V15.4605V17.2384L30.4511 17.2447C29.4259 17.2488 28.5726 17.2426 28.5537 17.2342C28.5181 17.2195 28.516 17.1168 28.516 15.5045C28.516 13.5757 28.5244 13.6868 28.3588 13.603C28.277 13.5631 28.2309 13.561 26.8597 13.5589C26.0819 13.5568 25.3314 13.5631 25.193 13.5715Z" fill="#020617"/>
<path d="M60.4985 26.5323C60.465 26.6371 60.1484 27.1382 59.9282 27.4338C58.7164 29.0523 57.2111 30.0838 54.7121 31.0147C54.5506 31.0755 53.9887 31.2684 53.4646 31.4445C52.3849 31.8072 51.8503 32.0043 51.2758 32.2517C50.6804 32.5074 49.9634 32.8701 49.4812 33.1595C48.087 33.9981 46.8249 35.1973 46.0303 36.4447C45.5732 37.1617 45.198 38.0234 45.0072 38.797C44.852 39.4281 44.7849 39.9648 44.7849 40.6085C44.7849 41.1871 44.8353 41.5896 44.9841 42.1997C45.2001 43.0824 45.6278 43.9294 46.2588 44.7219C46.372 44.8623 46.4789 44.9944 46.4999 45.0154C46.5188 45.0363 46.5628 45.093 46.5984 45.1433L46.6592 45.2334L46.6949 45.0468C46.7955 44.529 47.0282 43.7847 47.3113 43.0698C47.3553 42.9608 47.3993 42.8622 47.4077 42.8518C47.4182 42.8392 47.4266 42.8182 47.4266 42.8035C47.4266 42.7742 47.5545 42.5016 47.7515 42.1054C47.8836 41.8391 47.9151 41.7825 48.0325 41.5854C48.0681 41.5246 48.0975 41.4722 48.0975 41.468C48.0975 41.4282 48.6656 40.5665 48.8606 40.3128C49.4267 39.5686 50.0661 38.9082 50.7706 38.34C51.3513 37.8725 52.278 37.2645 53.0788 36.8284C54.8462 35.8598 55.5884 35.4153 56.1838 34.9646C56.2782 34.8933 56.3767 34.8283 56.4019 34.8199C56.4564 34.801 56.492 34.8346 56.4752 34.8891C56.4543 34.9541 55.4773 35.9269 55.1628 36.1952C54.8945 36.4259 54.4374 36.797 54.06 37.0947C53.9028 37.2184 53.6302 37.4385 53.0243 37.9312C52.1249 38.6629 51.2465 39.4931 50.716 40.1137C50.1668 40.7573 49.7076 41.4617 49.2715 42.3255C48.6908 43.4723 48.2945 44.6296 48.152 45.5961C48.1352 45.7093 48.1247 45.81 48.131 45.8184C48.1352 45.8267 48.1688 45.8372 48.2065 45.8435C48.2442 45.8477 48.4644 45.8917 48.695 45.9379C49.3281 46.0678 49.9865 46.1873 50.3827 46.244C51.0871 46.3467 51.1731 46.3509 52.2172 46.3509C53.1292 46.3509 53.2591 46.3446 53.6009 46.3027C54.2592 46.223 54.9154 46.0678 55.4521 45.8666C56.8233 45.3529 58.0455 44.4095 59.0288 43.1117C59.2154 42.8643 59.532 42.4052 59.5991 42.2836C59.6117 42.2605 59.6892 42.1284 59.7689 41.9901C60.3434 41.0005 60.8298 39.7656 61.1484 38.4805C61.3224 37.7781 61.4252 37.2184 61.5363 36.3504C61.7061 35.0128 61.7271 33.1616 61.5887 31.5912C61.5027 30.6122 61.3644 29.6142 61.2008 28.8112C61.1442 28.5282 61.0394 28.0921 60.943 27.7231C60.8905 27.5282 60.7228 26.9914 60.6348 26.7399C60.5886 26.6078 60.5509 26.4988 60.5509 26.4946C60.5509 26.4652 60.509 26.4946 60.4985 26.5323ZM61.0981 29.0167C61.1254 29.0502 61.1233 29.0523 61.0918 29.0251C61.0562 28.9978 61.0457 28.9811 61.0625 28.9811C61.0667 28.9811 61.0834 28.9978 61.0981 29.0167ZM61.2616 29.5723C61.2595 29.61 61.2553 29.6247 61.2491 29.6037C61.2449 29.5849 61.2302 29.5744 61.2197 29.5807C61.2071 29.587 61.2092 29.5744 61.226 29.5492C61.2616 29.4905 61.2637 29.4926 61.2616 29.5723ZM61.3686 30.4277C61.379 30.4948 61.3686 30.5535 61.3455 30.5535C61.3308 30.5535 61.3287 30.5304 61.3371 30.4885C61.3476 30.4423 61.3455 30.4277 61.3287 30.4361C61.3015 30.4528 61.2994 30.4444 61.3182 30.3962C61.3329 30.3585 61.3623 30.3774 61.3686 30.4277ZM61.3916 30.6289L61.3748 30.6897L61.3644 30.6331C61.3581 30.6017 61.3623 30.5807 61.3707 30.587C61.3811 30.5933 61.3895 30.587 61.3895 30.5723C61.3895 30.5577 61.3937 30.5514 61.4 30.5556C61.4042 30.5618 61.4021 30.5933 61.3916 30.6289ZM61.3769 30.7086C61.4377 30.7631 61.4545 30.8889 61.4021 30.8889C61.3581 30.8889 61.3497 30.8407 61.3874 30.8113C61.4084 30.7946 61.4126 30.7799 61.4 30.7694C61.3644 30.7421 61.2973 30.6583 61.312 30.6583C61.3182 30.6583 61.3476 30.6813 61.3769 30.7086ZM61.4671 31.2474C61.4566 31.346 61.4461 31.3606 61.4105 31.3187C61.3895 31.2935 61.3895 31.2872 61.4168 31.2872C61.4377 31.2872 61.4461 31.2747 61.4398 31.2558C61.4315 31.239 61.4189 31.2306 61.4084 31.2369C61.3979 31.2432 61.3895 31.2369 61.3895 31.2264C61.3895 31.2139 61.4 31.2034 61.4105 31.2034C61.4231 31.2034 61.4315 31.1887 61.4315 31.1698C61.4315 31.1531 61.4419 31.1447 61.4524 31.151C61.465 31.1594 61.4713 31.2013 61.4671 31.2474ZM61.5405 32.2349C61.5237 32.2517 61.5216 32.2433 61.53 32.2076C61.5384 32.1804 61.5468 32.1699 61.5531 32.1867C61.5572 32.2013 61.551 32.2244 61.5405 32.2349ZM61.5677 32.2936C61.574 32.3041 61.5719 32.3146 61.5593 32.3146C61.5489 32.3146 61.5321 32.3041 61.5258 32.2936C61.5195 32.281 61.5216 32.2726 61.5342 32.2726C61.5447 32.2726 61.5614 32.281 61.5677 32.2936ZM61.5572 32.367C61.5572 32.3837 61.5572 32.4047 61.5593 32.4131C61.5593 32.4215 61.5531 32.432 61.5426 32.4341C61.5321 32.4382 61.5237 32.4173 61.5237 32.3879C61.5237 32.3586 61.5321 32.3355 61.5405 32.3355C61.5489 32.3355 61.5572 32.3502 61.5572 32.367ZM61.5782 34.6207C61.5782 34.6312 61.574 34.6417 61.5698 34.6417C61.5635 34.6417 61.5531 34.6312 61.5468 34.6207C61.5405 34.6082 61.5447 34.5998 61.5552 34.5998C61.5677 34.5998 61.5782 34.6082 61.5782 34.6207ZM61.53 35.0233C61.5237 35.0401 61.5174 35.0338 61.5174 35.0107C61.5153 34.9876 61.5216 34.9751 61.5279 34.9834C61.5342 34.9897 61.5363 35.0086 61.53 35.0233ZM61.4818 35.5956C61.4734 35.6124 61.465 35.6271 61.4608 35.6271C61.4566 35.6271 61.4524 35.6124 61.4524 35.5956C61.4524 35.5789 61.4608 35.5642 61.4734 35.5642C61.4839 35.5642 61.4881 35.5789 61.4818 35.5956ZM49.5588 45.9672C49.5525 45.984 49.5462 45.9777 49.5462 45.9546C49.5441 45.9316 49.5504 45.919 49.5567 45.9274C49.563 45.9337 49.565 45.9525 49.5588 45.9672ZM49.6908 46.0049C49.6908 46.0154 49.6825 46.0259 49.6699 46.0259C49.6594 46.0259 49.6489 46.0154 49.6489 46.0049C49.6489 45.9924 49.6594 45.984 49.6699 45.984C49.6825 45.984 49.6908 45.9924 49.6908 46.0049ZM49.7747 45.9924C49.7747 45.9987 49.7663 46.0091 49.7537 46.0154C49.7433 46.0217 49.7328 46.0175 49.7328 46.007C49.7328 45.9945 49.7433 45.984 49.7537 45.984C49.7663 45.984 49.7747 45.9882 49.7747 45.9924ZM50.0263 46.0049C50.0263 46.0154 50.0116 46.0196 49.9948 46.0133C49.9781 46.0049 49.9634 45.9966 49.9634 45.9924C49.9634 45.9882 49.9781 45.984 49.9948 45.984C50.0116 45.984 50.0263 45.9924 50.0263 46.0049ZM50.2359 46.0699C50.2213 46.093 50.2066 46.1098 50.2024 46.1035C50.1877 46.0888 50.2171 46.0259 50.238 46.0259C50.2506 46.0259 50.2485 46.0448 50.2359 46.0699ZM50.1311 46.0804C50.1311 46.0972 50.1206 46.1056 50.1101 46.0993C50.0976 46.0909 50.0934 46.0762 50.0997 46.0657C50.1185 46.0364 50.1311 46.0427 50.1311 46.0804ZM50.5441 46.1014C50.5378 46.1098 50.5148 46.1077 50.4938 46.1014C50.4624 46.0888 50.4624 46.0846 50.4875 46.0678C50.5211 46.0469 50.5693 46.0762 50.5441 46.1014ZM50.6909 46.0804C50.6846 46.0867 50.6657 46.0888 50.6511 46.0825C50.6343 46.0762 50.6406 46.0699 50.6636 46.0699C50.6867 46.0678 50.6993 46.0741 50.6909 46.0804ZM50.781 46.1727C50.781 46.1832 50.7664 46.1936 50.7475 46.1936C50.7307 46.1936 50.7223 46.1832 50.7286 46.1727C50.7349 46.1601 50.7496 46.1517 50.7622 46.1517C50.7727 46.1517 50.781 46.1601 50.781 46.1727ZM51.8712 46.2691C51.8712 46.2733 51.7937 46.2754 51.6993 46.2733C51.5379 46.2712 51.5337 46.2691 51.6406 46.2586C51.7517 46.246 51.8712 46.2523 51.8712 46.2691ZM51.9866 46.2565C51.9928 46.2691 51.9782 46.2775 51.9509 46.2775C51.9132 46.2775 51.909 46.2733 51.9341 46.2565C51.974 46.2314 51.9719 46.2314 51.9866 46.2565ZM52.4897 46.2565C52.496 46.267 52.4876 46.2775 52.4688 46.2775C52.4499 46.2775 52.4415 46.267 52.4478 46.2565C52.4541 46.244 52.4646 46.2356 52.4688 46.2356C52.4729 46.2356 52.4834 46.244 52.4897 46.2565ZM52.3178 46.2712C52.3031 46.2754 52.278 46.2754 52.2654 46.2712C52.2507 46.2649 52.2612 46.2607 52.2905 46.2607C52.3199 46.2607 52.3304 46.2649 52.3178 46.2712ZM52.6952 46.2712C52.6805 46.2754 52.6512 46.2754 52.6323 46.2712C52.6113 46.2649 52.6239 46.2607 52.6574 46.2607C52.6931 46.2607 52.7078 46.2649 52.6952 46.2712Z" fill="#16A34A"/>
<path d="M22.5805 34.9394C22.4442 34.9625 22.2827 35.0506 22.1905 35.1512C22.0794 35.2707 21.962 35.4782 21.7544 35.9101C21.5699 36.2938 21.5657 36.3043 21.3414 36.797C21.2596 36.9773 21.1569 37.2058 21.1108 37.3043C21.0647 37.4029 20.9703 37.6104 20.9011 37.7656C20.7376 38.1346 20.6579 38.2834 20.6139 38.3002C20.595 38.3065 20.2889 38.3274 19.9304 38.3421C18.9891 38.3861 18.3622 38.4469 17.7291 38.5539C16.1001 38.8285 14.8736 39.3233 13.2634 40.3506C12.689 40.7175 12.2592 41.0152 11.3241 41.6882C11.1459 41.8182 10.9614 41.9503 10.9153 41.9838C10.8692 42.0174 10.7602 42.0949 10.6742 42.1578C10.1228 42.5625 8.82297 43.4388 8.46237 43.6506C7.68246 44.1076 7.26525 44.2795 6.28197 44.5584C5.66559 44.7324 5.57334 44.7785 5.31756 45.0343C4.91293 45.441 4.71795 46.0469 4.55233 47.4096C4.47266 48.0659 4.42444 48.4034 4.39299 48.4998C4.37202 48.5711 4.32171 48.6361 4.2064 48.7514C4.03029 48.9254 4.03867 48.9024 3.97368 49.3909C3.92756 49.7389 3.90869 50.9381 3.94223 51.3407C4.00094 51.9927 4.10786 52.5252 4.22527 52.7244C4.38041 52.9843 4.70537 53.2883 5.05549 53.498C5.27982 53.6322 6.26939 54.1081 6.28616 54.0892C6.29245 54.085 6.30084 53.8733 6.30503 53.6217C6.32809 52.3973 6.4455 51.5063 6.64886 51.0157C6.66983 50.9633 6.71386 50.8543 6.74321 50.7746C6.82707 50.5545 7.12687 49.98 7.26944 49.7683C7.62585 49.2315 8.17724 48.8311 8.75588 48.6885C9.02634 48.6235 9.5316 48.6235 9.80415 48.6885C10.0474 48.7472 10.408 48.9213 10.6218 49.0806C11.0055 49.3678 11.4269 49.915 11.7141 50.4978C12.2571 51.6048 12.5087 53.1311 12.341 54.3031C12.2026 55.2717 11.9636 55.974 11.5736 56.5631C11.4541 56.7434 11.3409 56.8734 11.039 57.1774C10.8273 57.3892 10.6574 57.5695 10.6637 57.5779C10.6679 57.5862 10.7203 57.5988 10.779 57.603C10.8419 57.6093 10.9111 57.6324 10.9468 57.6575C11.125 57.7917 11.9384 57.842 12.3661 57.7498C12.645 57.689 12.9385 57.5611 13.0265 57.4625C13.0622 57.4206 13.1356 57.3619 13.188 57.3326C13.5905 57.0998 14.0161 56.5862 14.2488 56.0474C14.2928 55.9488 14.3453 55.8252 14.3704 55.7685L14.4123 55.67H14.5402C14.7688 55.6721 15.6409 55.7413 16.2405 55.8063C16.402 55.8252 16.6284 55.8482 16.7437 55.8587C16.859 55.8692 17.0896 55.8922 17.2573 55.9111C17.4251 55.9279 17.7416 55.9614 17.9597 55.9845C18.1798 56.0076 18.4251 56.0369 18.5048 56.0474C18.5866 56.06 18.7941 56.083 18.9702 56.0998C19.1442 56.1166 19.3518 56.1396 19.4315 56.1522C19.509 56.1627 19.6684 56.1816 19.7837 56.1941C20.0835 56.2235 20.6873 56.2906 21.1108 56.3409C21.3079 56.364 21.6349 56.4017 21.8341 56.4248C22.0312 56.4478 22.2282 56.4709 22.2681 56.4772C22.3079 56.4835 22.4693 56.5023 22.6245 56.5191C22.7796 56.5359 23.0249 56.5631 23.1696 56.582C23.5721 56.6302 24.1025 56.691 24.5428 56.7392C24.763 56.7623 25.0586 56.7959 25.2032 56.8126C25.3479 56.8294 25.5554 56.8525 25.6645 56.8629C25.7735 56.8755 25.9957 56.8986 26.1572 56.9154C26.6771 56.9741 27.0545 57.0118 27.2788 57.0307C27.4004 57.0411 27.5136 57.0558 27.5325 57.0642C27.5954 57.0894 27.5975 57.0328 27.543 56.7539C27.4298 56.1606 27.3627 55.5274 27.3627 55.041C27.3627 53.976 27.5052 53.1646 27.847 52.3009C28.2809 51.2044 29.0294 50.3972 29.9204 50.0723C30.2412 49.9569 30.4404 49.9192 30.8366 49.9087C31.149 49.9003 31.2245 49.9066 31.4132 49.9465C31.7507 50.0177 32.0149 50.1247 32.3734 50.3364C32.7382 50.5545 33.059 50.8333 33.4133 51.2463C33.994 51.9235 34.1974 52.3491 34.449 53.4162C34.6314 54.1857 34.6817 54.7098 34.6376 55.366C34.5664 56.4478 34.2666 57.4835 33.8431 58.1146C33.7089 58.3179 33.3462 58.7393 33.126 58.9553C32.9625 59.1104 32.6795 59.3369 32.5139 59.4396C32.4132 59.5004 32.3964 59.5172 32.43 59.5297C32.4929 59.5528 34.0863 59.5507 34.3232 59.5276C35.1261 59.4459 35.514 59.2782 35.9606 58.8211C36.2499 58.5255 36.4281 58.2488 36.5769 57.8609C36.6084 57.7791 36.644 57.7037 36.6587 57.689C36.6755 57.6722 36.7363 57.6701 36.8914 57.6869C37.1304 57.7099 38.7091 57.6932 39.2395 57.6617C39.424 57.6512 39.9104 57.6324 40.3193 57.6198C40.7281 57.6093 41.2061 57.5904 41.378 57.5779C41.552 57.5653 41.9609 57.5464 42.29 57.5359C42.6192 57.5233 43.0301 57.5045 43.202 57.494C43.376 57.4835 43.7576 57.4646 44.0511 57.4521C44.3446 57.4395 44.766 57.4164 44.9841 57.3997C45.5774 57.3535 45.5942 57.3535 45.6612 57.4353C45.982 57.8211 46.3636 58.1167 46.8185 58.3284C47.2483 58.5297 47.6446 58.6408 48.066 58.6764C48.1352 58.6827 48.2903 58.6974 48.414 58.71C48.9339 58.7645 49.7851 58.601 50.2841 58.3515C50.7537 58.1146 51.3953 57.5464 51.7433 57.06C51.9613 56.7518 51.9844 56.7392 52.4792 56.6554C53.4142 56.4939 53.7958 56.408 54.1879 56.2696C54.6638 56.104 54.8797 55.9677 54.9887 55.7602C55.1145 55.5233 55.1082 55.4939 54.8315 54.9404L54.6512 54.5756L54.6889 54.4687C54.7099 54.4079 54.7435 54.3219 54.7644 54.2758C54.8189 54.1605 54.863 54.0347 54.9258 53.8251C54.9741 53.6594 54.9804 53.607 54.9887 53.0976C54.9971 52.6154 54.9929 52.5084 54.9531 52.2275C54.886 51.7453 54.8042 51.3281 54.7749 51.3176C54.7476 51.3071 54.3577 51.3616 54.0097 51.4245C53.9111 51.4413 53.7497 51.4706 53.6491 51.4874C53.5484 51.5063 53.3975 51.5189 53.3136 51.5147L53.1606 51.5084V50.8375C53.1606 50.2484 53.1648 50.1477 53.2004 50.0094C53.2465 49.8291 53.2717 49.7683 53.3744 49.6194C53.4688 49.4789 53.5547 49.4181 53.6805 49.3993C53.8042 49.3783 53.8168 49.3699 53.7853 49.3196C53.7728 49.2986 53.7497 49.2399 53.7371 49.1917C53.6742 48.9611 53.1648 48.5816 52.4079 48.2021C51.5022 47.7472 50.1374 47.2147 48.6216 46.7199C47.5272 46.3635 46.1581 45.9526 45.3971 45.7513C45.2629 45.7156 45.005 45.6465 44.8268 45.5961C44.5019 45.5039 43.6737 45.2942 43.2964 45.2062C43.0636 45.1538 42.9903 45.1202 42.81 44.9819C42.6674 44.8728 42.1454 44.4934 41.4933 44.0258C41.0908 43.7386 39.967 42.9272 39.7637 42.7763C39.6714 42.7092 39.3465 42.4786 38.8936 42.1599C38.5477 41.9167 36.8558 40.7909 36.556 40.6043C35.3002 39.8202 34.3085 39.3464 33.1491 38.9732C32.5034 38.7656 31.6627 38.5665 31.1574 38.4994C30.6291 38.4302 30.3691 38.3715 30.281 38.3044C30.237 38.2687 30.1678 38.1241 29.6269 36.906C29.0839 35.6858 28.8827 35.2665 28.782 35.1512C28.694 35.0527 28.5682 34.9835 28.4214 34.9583C28.2768 34.9311 22.7272 34.9143 22.5805 34.9394ZM25.1278 35.841C25.134 35.8682 25.1445 35.9605 25.1508 36.0464C25.1676 36.2435 25.2368 36.7383 25.2766 36.9563C25.329 37.2289 25.3898 37.1995 24.7692 37.1995C24.4715 37.1995 24.1948 37.189 24.1529 37.1785C24.0753 37.1555 23.9788 37.0695 23.9579 37.0003C23.9348 36.9207 23.8572 35.8389 23.874 35.8116C23.8803 35.8032 24.1633 35.7948 24.5009 35.7948H25.1194L25.1278 35.841ZM27.3669 35.82C27.3857 35.8368 27.4381 36.0108 27.4989 36.2665C27.5534 36.4972 27.631 36.7928 27.6688 36.9207C27.7086 37.0507 27.74 37.166 27.74 37.1785C27.74 37.2037 26.8092 37.2058 26.675 37.1806C26.5324 37.1534 26.5366 37.1597 26.4402 36.581C26.415 36.4301 26.3773 36.2078 26.3542 36.0862C26.3333 35.9646 26.3144 35.8493 26.3144 35.8305C26.3144 35.799 26.3626 35.7948 26.8239 35.7948C27.2012 35.7948 27.3417 35.8011 27.3669 35.82ZM18.5006 40.4072C18.4964 40.4827 18.4796 40.6085 18.4629 40.6902C18.4251 40.8517 18.4167 40.8831 18.1903 41.7385C18.0415 42.3004 17.9513 42.6673 17.7605 43.4682C17.6138 44.0824 17.4125 44.8498 17.3936 44.8686C17.381 44.8812 16.2971 44.789 15.0979 44.6737C14.9197 44.6569 14.6367 44.6317 14.469 44.6192C14.3012 44.6066 14.1 44.5898 14.0182 44.5793C13.9385 44.5688 13.7687 44.5563 13.6408 44.5479C13.515 44.5416 13.3305 44.5269 13.232 44.5164C13.1335 44.5038 12.8903 44.4808 12.689 44.464C12.4877 44.4451 12.2236 44.4179 12.102 44.4011C11.9825 44.3843 11.8755 44.3697 11.8671 44.3697C11.8588 44.3697 11.8231 44.3445 11.7875 44.3152C11.7015 44.2439 11.7036 44.1705 11.7896 44.007C11.8818 43.8371 12.0894 43.6086 13.0601 42.6274C13.8672 41.8098 14.4669 41.2374 14.6828 41.0739C15.2635 40.6378 16.1252 40.4261 17.7605 40.3108C18.031 40.2919 18.2574 40.273 18.2637 40.2688C18.2679 40.2625 18.3245 40.2605 18.3895 40.2646L18.5048 40.2709L18.5006 40.4072ZM20.4022 40.315C20.8236 40.3506 21.1066 40.4009 21.4546 40.5037C22.8719 40.9188 24.0711 41.902 25.1865 43.5646C25.524 44.0678 25.807 44.5772 26.1991 45.3928C26.3144 45.6339 26.3123 45.6486 26.1572 45.6486C26.002 45.6486 25.9936 45.6381 25.8406 45.3613C25.6561 45.028 25.4632 44.7722 25.2619 44.6003C24.981 44.3571 24.7105 44.246 24.2493 44.1873C23.9809 44.1537 23.9411 44.1537 23.5407 44.1873C23.0249 44.2313 22.6245 44.3194 22.3729 44.4451C22.2471 44.5059 22.0794 44.659 21.9997 44.7848C21.9305 44.8896 21.8697 45.0867 21.8697 45.1999C21.8697 45.2376 21.8572 45.2712 21.8425 45.2775C21.8257 45.2838 21.7104 45.2754 21.5846 45.2607C21.4588 45.246 21.2575 45.2272 21.1359 45.2188C21.0143 45.2125 20.7041 45.1873 20.4441 45.1643C19.616 45.093 19.2658 45.0636 18.966 45.0406C18.8046 45.028 18.6557 45.0133 18.6369 45.007C18.5907 44.9923 18.5907 44.9714 18.639 44.7261C18.6893 44.4829 18.748 44.1537 18.8088 43.8036C18.8318 43.6589 18.8696 43.4367 18.8926 43.3109C18.9136 43.183 18.9472 42.9943 18.9639 42.8916C18.9828 42.7868 19.0017 42.661 19.008 42.6086C19.0163 42.5562 19.0394 42.4052 19.0604 42.2731C19.0813 42.141 19.1191 41.9041 19.1421 41.749C19.247 41.0446 19.2721 40.8726 19.291 40.7741C19.3392 40.5078 19.379 40.3506 19.4105 40.3045C19.4419 40.2542 19.4419 40.2542 19.7396 40.2688C19.9011 40.2772 20.2009 40.2982 20.4022 40.315ZM32.604 40.3233C33.2854 40.359 33.7361 40.468 34.3714 40.7531C35.5266 41.2689 36.4281 41.8391 38.294 43.2396C38.5456 43.4283 38.7783 43.6023 38.8077 43.6233C39.0823 43.8288 40.0488 44.5919 40.3738 44.8603C40.4451 44.919 40.5373 44.9944 40.5792 45.0259C40.6212 45.0573 40.6547 45.093 40.6547 45.1035C40.6547 45.116 40.4933 45.1244 40.2522 45.1244C40.0299 45.1244 39.357 45.1391 38.7573 45.1559C38.1577 45.1726 37.0633 45.1957 36.3254 45.2083C35.5874 45.2209 34.4511 45.2439 33.799 45.2607C33.147 45.2775 31.9373 45.2921 31.1092 45.2921C29.65 45.2921 29.5976 45.29 29.4215 45.2481C29.2055 45.1957 28.9896 45.0972 28.8302 44.9777C28.6793 44.8645 28.2369 44.4263 28.0482 44.2019C27.9665 44.1034 27.8553 43.9713 27.8029 43.9084C27.6939 43.7784 27.4864 43.5248 26.9874 42.9021C26.7966 42.6652 26.6058 42.4304 26.5639 42.378C26.0775 41.793 25.7567 41.4387 25.2787 40.9565C24.9328 40.6064 24.721 40.3779 24.7336 40.3674C24.7713 40.3296 26.3396 40.3087 29.26 40.3066C31.0127 40.3045 32.3608 40.3108 32.604 40.3233ZM36.3883 49.0554C36.7887 49.0932 37.2541 49.1519 37.8139 49.2336C38.0571 49.2693 38.3213 49.307 38.4009 49.3175C39.1599 49.4202 40.4576 49.6613 41.1139 49.8249C42.2187 50.0974 42.9399 50.4874 43.4054 51.066C43.6926 51.4245 43.9232 51.913 43.9253 52.1646V52.2359L43.8268 52.2233C43.7702 52.217 43.462 52.2023 43.1391 52.1898C42.8162 52.1772 42.3592 52.152 42.1223 52.1352C41.8854 52.1185 41.6128 52.0996 41.5143 52.0933C41.2313 52.0744 40.1075 51.9801 40.0153 51.9696C39.9691 51.9633 39.7909 51.9445 39.6169 51.9277C39.3129 51.8983 39.1704 51.8816 38.4743 51.7893C37.2688 51.6321 36.4721 51.3092 35.9564 50.7704C35.5769 50.3742 35.3568 49.8836 35.3358 49.3909C35.3253 49.1749 35.3274 49.1561 35.3714 49.1016C35.3987 49.068 35.4385 49.0324 35.4637 49.0219C35.5161 48.9988 35.9585 49.0135 36.3883 49.0554Z" fill="#020617"/>
<path d="M21.5817 50.3679L19.9733 49.4393L21.1262 47.7194C21.1818 47.6389 21.1726 47.5299 21.1051 47.4595C21.0377 47.389 20.9284 47.3754 20.8449 47.4264L17.409 49.5266C17.3464 49.5648 17.3091 49.6334 17.309 49.7077C17.3099 49.7803 17.3495 49.8482 17.4137 49.8853L19.0221 50.8138L17.8692 52.5337C17.8136 52.6143 17.8228 52.7232 17.8903 52.7937C17.9234 52.8279 17.9673 52.8498 18.0146 52.8558C18.0619 52.8619 18.1098 52.8516 18.1505 52.8268L21.5864 50.7265C21.649 50.6883 21.6863 50.6198 21.6854 50.5472C21.6855 50.4729 21.6459 50.405 21.5817 50.3679Z" fill="white"/>
<path d="M9.09156 49.9234C8.78757 49.9737 8.50034 50.089 8.27601 50.2483C7.80429 50.5859 7.39127 51.3029 7.18581 52.1436C7.05583 52.6719 7.03696 52.8585 7.03696 53.5839C7.03905 54.1584 7.04325 54.2674 7.08518 54.5169C7.16485 54.9991 7.255 55.3136 7.41224 55.67C7.70995 56.3388 8.11038 56.8 8.60097 57.0369C8.86514 57.1648 8.98883 57.19 9.33267 57.19C9.67021 57.1879 9.81906 57.1543 10.0895 57.0202C10.6807 56.7246 11.1755 55.9698 11.4082 55.0033C11.5152 54.5567 11.5445 54.2674 11.5445 53.6364C11.5445 53.1164 11.5382 52.9969 11.4963 52.7244C11.4313 52.3092 11.3999 52.1646 11.2992 51.8648C10.9428 50.7893 10.404 50.1582 9.68069 49.9695C9.48781 49.9192 9.24042 49.9003 9.09156 49.9234Z" fill="#020617"/>
<path d="M30.7491 51.261C29.9398 51.3616 29.2815 51.892 28.8328 52.8082C28.5896 53.2988 28.4659 53.7307 28.3926 54.3345C28.3318 54.8146 28.3234 55.0431 28.3464 55.3555C28.4156 56.2088 28.5666 56.7937 28.8831 57.4248C29.0865 57.8315 29.2521 58.0663 29.5394 58.3599C29.8706 58.6953 30.1956 58.8882 30.6128 58.9972C30.8916 59.0727 31.3382 59.0769 31.5877 59.0077C31.9672 58.9029 32.2229 58.7645 32.5102 58.5087C33.1014 57.9825 33.5039 57.1061 33.6444 56.0369C33.7031 55.5966 33.6989 54.8649 33.6339 54.4435C33.4494 53.2359 32.9232 52.2275 32.1915 51.6782C31.7575 51.3532 31.2313 51.2002 30.7491 51.261Z" fill="#020617"/>
<path d="M78.7887 37.174C75.3354 37.174 72.7221 36.2407 70.9487 34.374C69.2127 32.6194 68.3447 30.146 68.3447 26.954V26.73C68.3447 23.6874 69.3154 21.214 71.2567 19.31C73.1607 17.4434 75.5967 16.51 78.5647 16.51C81.1967 16.51 83.3434 17.126 85.0047 18.358C86.6847 19.6834 87.6367 21.634 87.8607 24.21H81.9527C81.7287 22.1007 80.6087 21.046 78.5927 21.046C77.2861 21.046 76.2594 21.5407 75.5127 22.53C74.7661 23.5007 74.3927 24.8914 74.3927 26.702V26.926C74.3927 28.7367 74.7567 30.1367 75.4847 31.126C76.2314 32.0967 77.2954 32.582 78.6767 32.582C80.8607 32.582 82.1021 31.49 82.4007 29.306H88.1127C87.9261 31.8074 86.9741 33.7674 85.2567 35.186C83.5954 36.5114 81.4394 37.174 78.7887 37.174Z" fill="#020617"/>
<path d="M94.4315 37.174C93.0129 37.174 91.8649 36.8287 90.9875 36.138C89.9795 35.3727 89.4755 34.2527 89.4755 32.778C89.4755 29.586 92.0702 27.99 97.2595 27.99H98.6595V27.654C98.6595 26.87 98.5195 26.2914 98.2395 25.918C97.9782 25.526 97.4742 25.33 96.7275 25.33C95.5515 25.33 94.8889 25.9087 94.7395 27.066H90.0355C90.1475 25.3487 90.8475 24.0234 92.1355 23.09C93.3302 22.2314 94.9635 21.802 97.0355 21.802C99.1262 21.802 100.732 22.2407 101.852 23.118C103.046 24.0514 103.644 25.4607 103.644 27.346V36.838H98.7715V35.13C97.8942 36.4927 96.4475 37.174 94.4315 37.174ZM96.1675 33.786C96.8955 33.786 97.4929 33.5994 97.9595 33.226C98.4262 32.834 98.6595 32.33 98.6595 31.714V30.818H97.3435C96.3169 30.818 95.5702 30.9394 95.1035 31.182C94.6555 31.406 94.4315 31.8167 94.4315 32.414C94.4315 33.3287 95.0102 33.786 96.1675 33.786Z" fill="#020617"/>
<path d="M113.559 20.374C112.122 20.374 111.011 20.0007 110.227 19.254C109.462 18.5074 109.032 17.4527 108.939 16.09H112.327C112.42 17.042 112.831 17.518 113.559 17.518C114.306 17.518 114.744 17.042 114.875 16.09H118.235C118.123 17.4527 117.656 18.5074 116.835 19.254C116.032 20.0007 114.94 20.374 113.559 20.374ZM106.419 36.838V22.194H111.403V31.098L115.995 22.194H120.979V36.838H115.995V27.934L111.403 36.838H106.419Z" fill="#020617"/>
<path d="M124.085 22.194H129.097V24.378C130.142 22.6607 131.664 21.802 133.661 21.802C135.453 21.802 136.909 22.4367 138.029 23.706C139.242 25.0687 139.849 26.9634 139.849 29.39V29.614C139.849 32.0407 139.242 33.926 138.029 35.27C136.909 36.5394 135.444 37.174 133.633 37.174C131.468 37.174 129.956 36.3434 129.097 34.682V41.738H124.085V22.194ZM131.869 33.338C133.792 33.338 134.753 32.0967 134.753 29.614V29.39C134.753 28.1207 134.501 27.1687 133.997 26.534C133.493 25.8994 132.784 25.582 131.869 25.582C130.954 25.582 130.236 25.9087 129.713 26.562C129.209 27.2154 128.957 28.1487 128.957 29.362V29.586C128.957 30.818 129.209 31.7514 129.713 32.386C130.217 33.0207 130.936 33.338 131.869 33.338Z" fill="#020617"/>
<path d="M159.501 25.61H155.385V36.838H150.401V25.61H146.285V22.194H159.501V25.61Z" fill="#020617"/>
<path d="M165.361 37.174C163.943 37.174 162.795 36.8287 161.917 36.138C160.909 35.3727 160.405 34.2527 160.405 32.778C160.405 29.586 163 27.99 168.189 27.99H169.589V27.654C169.589 26.87 169.449 26.2914 169.169 25.918C168.908 25.526 168.404 25.33 167.657 25.33C166.481 25.33 165.819 25.9087 165.669 27.066H160.965C161.077 25.3487 161.777 24.0234 163.065 23.09C164.26 22.2314 165.893 21.802 167.965 21.802C170.056 21.802 171.661 22.2407 172.781 23.118C173.976 24.0514 174.573 25.4607 174.573 27.346V36.838H169.701V35.13C168.824 36.4927 167.377 37.174 165.361 37.174ZM167.097 33.786C167.825 33.786 168.423 33.5994 168.889 33.226C169.356 32.834 169.589 32.33 169.589 31.714V30.818H168.273C167.247 30.818 166.5 30.9394 166.033 31.182C165.585 31.406 165.361 31.8167 165.361 32.414C165.361 33.3287 165.94 33.786 167.097 33.786Z" fill="#020617"/>
<path d="M182.333 30.426V36.838H177.321V22.194H182.333V27.99L186.281 22.194H191.489L186.701 28.774L191.881 36.838H186.281L182.333 30.426Z" fill="#020617"/>
<path d="M199.798 37.174C197.521 37.174 195.691 36.5394 194.31 35.27C192.835 33.9447 192.098 32.0874 192.098 29.698V29.474C192.098 27.122 192.863 25.2367 194.394 23.818C195.85 22.474 197.689 21.802 199.91 21.802C201.87 21.802 203.475 22.2407 204.726 23.118C206.163 24.182 206.947 25.75 207.078 27.822H202.374C202.15 26.4034 201.366 25.694 200.022 25.694C198.155 25.694 197.222 26.9354 197.222 29.418V29.642C197.222 32.218 198.183 33.506 200.106 33.506C201.599 33.506 202.449 32.694 202.654 31.07H207.162C207.087 32.9554 206.415 34.4487 205.146 35.55C203.895 36.6327 202.113 37.174 199.798 37.174Z" fill="#020617"/>
<path d="M209.122 36.838V22.194H214.106V31.098L218.698 22.194H223.682V36.838H218.698V27.934L214.106 36.838H209.122Z" fill="#020617"/>
<path d="M71.1307 45.656H68.3447V44.186H75.7927V45.656H73.0067V54.196H71.1307V45.656Z" fill="#64748B"/>
<path d="M78.1528 54.336C77.4342 54.336 76.8462 54.1587 76.3888 53.804C75.9315 53.44 75.7028 52.894 75.7028 52.166C75.7028 51.3634 76.0435 50.7754 76.7248 50.402C77.4155 50.0287 78.3255 49.842 79.4548 49.842H80.3648V49.464C80.3648 48.9507 80.2668 48.5774 80.0708 48.344C79.8748 48.1107 79.5295 47.994 79.0348 47.994C78.2042 47.994 77.7375 48.3767 77.6348 49.142H75.9968C76.0715 48.33 76.3935 47.7234 76.9628 47.322C77.5322 46.9207 78.2555 46.72 79.1328 46.72C81.0835 46.72 82.0588 47.6114 82.0588 49.394V54.196H80.3928V53.3C79.8515 53.9907 79.1048 54.336 78.1528 54.336ZM78.5588 53.118C79.1002 53.118 79.5342 52.9874 79.8608 52.726C80.1968 52.4647 80.3648 52.1007 80.3648 51.634V50.906H79.4968C78.0875 50.906 77.3828 51.3027 77.3828 52.096C77.3828 52.7774 77.7748 53.118 78.5588 53.118Z" fill="#64748B"/>
<path d="M85.6944 50.612V54.196H84.0004V46.874H85.6944V50.122L88.3124 46.874H90.1604L87.3184 50.262L90.3984 54.196H88.4384L85.6944 50.612Z" fill="#64748B"/>
<path d="M94.4115 54.336C93.3382 54.336 92.4515 54.0047 91.7515 53.342C91.0609 52.67 90.7155 51.7647 90.7155 50.626V50.514C90.7155 49.3847 91.0655 48.47 91.7655 47.77C92.4749 47.07 93.3569 46.72 94.4115 46.72C95.3075 46.72 96.0682 46.944 96.6935 47.392C97.3189 47.8307 97.6735 48.5214 97.7575 49.464H96.1195C95.9795 48.54 95.4195 48.078 94.4395 48.078C93.8515 48.078 93.3709 48.2927 92.9975 48.722C92.6335 49.1514 92.4515 49.7394 92.4515 50.486V50.598C92.4515 51.3914 92.6289 51.998 92.9835 52.418C93.3475 52.8287 93.8469 53.034 94.4815 53.034C94.9482 53.034 95.3449 52.8987 95.6715 52.628C95.9982 52.3574 96.1895 51.97 96.2455 51.466H97.7995C97.7435 52.3154 97.4075 53.006 96.7915 53.538C96.1755 54.07 95.3822 54.336 94.4115 54.336Z" fill="#64748B"/>
<path d="M99.2583 54.196V46.874H100.952V52.054L104.116 46.874H105.796V54.196H104.116V49.016L100.952 54.196H99.2583Z" fill="#64748B"/>
<path d="M115.871 51.088H112.833V54.196H111.139V46.874H112.833V49.828H115.871V46.874H117.565V54.196H115.871V51.088Z" fill="#64748B"/>
<path d="M121.493 54.336C120.774 54.336 120.186 54.1587 119.729 53.804C119.271 53.44 119.043 52.894 119.043 52.166C119.043 51.3634 119.383 50.7754 120.065 50.402C120.755 50.0287 121.665 49.842 122.795 49.842H123.705V49.464C123.705 48.9507 123.607 48.5774 123.411 48.344C123.215 48.1107 122.869 47.994 122.375 47.994C121.544 47.994 121.077 48.3767 120.975 49.142H119.337C119.411 48.33 119.733 47.7234 120.303 47.322C120.872 46.9207 121.595 46.72 122.473 46.72C124.423 46.72 125.399 47.6114 125.399 49.394V54.196H123.733V53.3C123.191 53.9907 122.445 54.336 121.493 54.336ZM121.899 53.118C122.44 53.118 122.874 52.9874 123.201 52.726C123.537 52.4647 123.705 52.1007 123.705 51.634V50.906H122.837C121.427 50.906 120.723 51.3027 120.723 52.096C120.723 52.7774 121.115 53.118 121.899 53.118Z" fill="#64748B"/>
<path d="M132.425 50.612V54.196H130.731V46.874H132.425V50.122L135.043 46.874H136.891L134.049 50.262L137.129 54.196H135.169L132.425 50.612Z" fill="#64748B"/>
<path d="M140.073 54.336C139.354 54.336 138.766 54.1587 138.309 53.804C137.851 53.44 137.623 52.894 137.623 52.166C137.623 51.3634 137.963 50.7754 138.645 50.402C139.335 50.0287 140.245 49.842 141.375 49.842H142.285V49.464C142.285 48.9507 142.187 48.5774 141.991 48.344C141.795 48.1107 141.449 47.994 140.955 47.994C140.124 47.994 139.657 48.3767 139.555 49.142H137.917C137.991 48.33 138.313 47.7234 138.883 47.322C139.452 46.9207 140.175 46.72 141.053 46.72C143.003 46.72 143.979 47.6114 143.979 49.394V54.196H142.313V53.3C141.771 53.9907 141.025 54.336 140.073 54.336ZM140.479 53.118C141.02 53.118 141.454 52.9874 141.781 52.726C142.117 52.4647 142.285 52.1007 142.285 51.634V50.906H141.417C140.007 50.906 139.303 51.3027 139.303 52.096C139.303 52.7774 139.695 53.118 140.479 53.118Z" fill="#64748B"/>
<path d="M149.308 50.57L146.928 54.196H145.094L147.768 50.276L145.304 46.874H147.068L149.308 50.192V46.874H150.96V50.192L153.2 46.874H154.964L152.5 50.248L155.188 54.196H153.326L150.96 50.57V54.196H149.308V50.57Z" fill="#64748B"/>
<path d="M158.408 51.088C158.305 51.9467 158.16 52.5627 157.974 52.936H160.816V48.12H158.59C158.515 49.6414 158.454 50.6307 158.408 51.088ZM157.064 55.974H155.622V52.936H156.084C156.326 52.852 156.504 52.656 156.616 52.348C156.728 52.0307 156.821 51.5734 156.896 50.976C157.045 49.772 157.12 48.4047 157.12 46.874H162.496V52.936H163.56V55.974H162.118L162.062 54.196H157.12L157.064 55.974Z" fill="#64748B"/>
<path d="M171.354 46.874H173.048V54.196H171.354V46.874ZM164.788 46.874H166.482V49.282H167.728C168.577 49.282 169.258 49.4874 169.772 49.898C170.285 50.3087 170.542 50.9154 170.542 51.718V51.76C170.542 52.5534 170.285 53.16 169.772 53.58C169.268 53.9907 168.572 54.196 167.686 54.196H164.788V46.874ZM167.49 52.964C167.956 52.964 168.297 52.8707 168.512 52.684C168.736 52.488 168.848 52.1754 168.848 51.746V51.704C168.848 50.9107 168.395 50.514 167.49 50.514H166.482V52.964H167.49Z" fill="#64748B"/>
<path d="M179.745 45.166C179.371 45.5207 178.891 45.698 178.303 45.698C177.715 45.698 177.239 45.5207 176.875 45.166C176.511 44.802 176.31 44.326 176.273 43.738H177.547C177.603 44.3447 177.855 44.648 178.303 44.648C178.779 44.648 179.049 44.3447 179.115 43.738H180.375C180.337 44.326 180.127 44.802 179.745 45.166ZM175.069 54.196V46.874H176.763V52.054L179.927 46.874H181.607V54.196H179.927V49.016L176.763 54.196H175.069Z" fill="#64748B"/>
<path d="M188.91 51.088C188.807 51.9467 188.662 52.5627 188.476 52.936H191.318V48.12H189.092C189.017 49.6414 188.956 50.6307 188.91 51.088ZM187.566 55.974H186.124V52.936H186.586C186.828 52.852 187.006 52.656 187.118 52.348C187.23 52.0307 187.323 51.5734 187.398 50.976C187.547 49.772 187.622 48.4047 187.622 46.874H192.998V52.936H194.062V55.974H192.62L192.564 54.196H187.622L187.566 55.974Z" fill="#64748B"/>
<path d="M198.441 54.336C197.34 54.336 196.444 54 195.753 53.328C195.072 52.656 194.731 51.7507 194.731 50.612V50.5C194.731 49.38 195.072 48.47 195.753 47.77C196.444 47.07 197.316 46.72 198.371 46.72C199.36 46.72 200.182 47.028 200.835 47.644C201.498 48.26 201.829 49.184 201.829 50.416V50.906H196.467C196.495 51.606 196.677 52.1427 197.013 52.516C197.358 52.8894 197.848 53.076 198.483 53.076C199.472 53.076 200.032 52.7027 200.163 51.956H201.801C201.68 52.7307 201.325 53.3234 200.737 53.734C200.158 54.1354 199.393 54.336 198.441 54.336ZM200.149 49.772C200.056 48.5587 199.463 47.952 198.371 47.952C197.867 47.952 197.447 48.1154 197.111 48.442C196.784 48.7594 196.579 49.2027 196.495 49.772H200.149Z" fill="#64748B"/>
<path d="M208.074 51.088H205.036V54.196H203.342V46.874H205.036V49.828H208.074V46.874H209.768V54.196H208.074V51.088Z" fill="#64748B"/>
<path d="M211.778 46.874H213.472V49.282H214.788C215.637 49.282 216.318 49.4967 216.832 49.926C217.345 50.3554 217.602 50.9667 217.602 51.76V51.802C217.602 52.6047 217.35 53.2067 216.846 53.608C216.342 54 215.642 54.196 214.746 54.196H211.778V46.874ZM214.536 52.978C215.441 52.978 215.894 52.5814 215.894 51.788V51.746C215.894 50.9247 215.441 50.514 214.536 50.514H213.472V52.978H214.536Z" fill="#64748B"/>
</svg>
