<svg width="82" height="82" viewBox="0 0 82 82" fill="none" xmlns="http://www.w3.org/2000/svg">
<path fill-rule="evenodd" clip-rule="evenodd" d="M40.9999 54.6667C54.2087 54.6667 64.9166 43.9589 64.9166 30.75C64.9166 17.5412 54.2087 6.83337 40.9999 6.83337C27.7911 6.83337 17.0833 17.5412 17.0833 30.75C17.0833 43.9589 27.7911 54.6667 40.9999 54.6667ZM40.9999 20.5C40.0294 20.5 39.3802 21.6646 38.0819 23.9936L37.746 24.5962C37.3771 25.258 37.1926 25.5889 36.905 25.8073C36.6174 26.0256 36.2591 26.1067 35.5427 26.2688L34.8904 26.4164C32.3693 26.9868 31.1087 27.272 30.8088 28.2365C30.5089 29.2009 31.3682 30.2058 33.087 32.2157L33.5317 32.7357C34.0201 33.3068 34.2643 33.5924 34.3742 33.9457C34.484 34.299 34.4471 34.68 34.3733 35.442L34.306 36.1358C34.0462 38.8174 33.9163 40.1582 34.7014 40.7543C35.4866 41.3503 36.6669 40.8069 39.0275 39.72L39.6382 39.4388C40.309 39.1299 40.6444 38.9755 40.9999 38.9755C41.3554 38.9755 41.6908 39.1299 42.3616 39.4388L42.9724 39.72C45.3329 40.8069 46.5132 41.3503 47.2984 40.7543C48.0836 40.1582 47.9536 38.8174 47.6938 36.1358L47.6266 35.442C47.5527 34.68 47.5158 34.299 47.6257 33.9457C47.7355 33.5924 47.9797 33.3069 48.4681 32.7357L48.9128 32.2157C50.6316 30.2059 51.491 29.2009 51.1911 28.2365C50.8912 27.272 49.6306 26.9868 47.1094 26.4164L46.4571 26.2688C45.7407 26.1067 45.3825 26.0256 45.0949 25.8073C44.8072 25.5889 44.6228 25.258 44.2538 24.5962L43.9179 23.9936C42.6196 21.6646 41.9705 20.5 40.9999 20.5Z" fill="#16A34A"/>
<path d="M15.3584 44.3979L10.2228 49.7154C8.37738 51.6262 7.45468 52.5815 7.13538 53.3906C6.4078 55.2342 7.03045 57.2793 8.61464 58.2492C9.30985 58.6748 10.5638 58.8074 13.0717 59.0726C14.4876 59.2224 15.1957 59.2973 15.7887 59.5246C17.1163 60.0334 18.1489 61.1027 18.6404 62.4772C18.8599 63.0912 18.9322 63.8243 19.0769 65.2904C19.3331 67.8871 19.4612 69.1855 19.8722 69.9053C20.8089 71.5456 22.784 72.1903 24.5646 71.4369C25.346 71.1063 26.2687 70.151 28.1141 68.2402L36.5944 59.4597C27.3779 58.0571 19.5851 52.3224 15.3584 44.3979Z" fill="#16A34A"/>
<path d="M45.4054 59.4597L53.8857 68.2402C55.7311 70.151 56.6538 71.1063 57.4352 71.4369C59.2158 72.1903 61.191 71.5456 62.1276 69.9053C62.5387 69.1855 62.6668 67.8871 62.923 65.2904C63.0676 63.8244 63.1399 63.0912 63.3594 62.4773C63.8509 61.1027 64.8836 60.0334 66.2111 59.5246C66.8041 59.2973 67.5121 59.2224 68.9281 59.0726C71.436 58.8074 72.69 58.6748 73.3852 58.2492C74.9694 57.2793 75.592 55.2343 74.8645 53.3906C74.5452 52.5815 73.6225 51.6262 71.7771 49.7154L66.6414 44.398C62.4147 52.3224 54.622 58.0571 45.4054 59.4597Z" fill="#16A34A"/>
</svg>
