<svg width="38" height="38" viewBox="0 0 38 38" fill="none" xmlns="http://www.w3.org/2000/svg">
<rect width="38" height="38" rx="19" fill="#D6FFE5"/>
<path d="M17.0376 12.3162L17.6866 13.4791C18.2723 14.5286 18.0372 15.9053 17.1147 16.8278C17.1147 16.8278 17.1147 16.8278 17.1147 16.8278C17.1146 16.8279 15.9959 17.9468 18.0245 19.9755C20.0525 22.0035 21.1714 20.8861 21.1722 20.8853C21.1722 20.8853 21.1722 20.8853 21.1722 20.8853C22.0947 19.9628 23.4714 19.7277 24.5209 20.3134L25.6838 20.9624C27.2686 21.8468 27.4557 24.0692 26.0628 25.4622C25.2258 26.2992 24.2004 26.9505 23.0669 26.9934C21.1588 27.0658 17.9183 26.5829 14.6677 23.3323C11.4171 20.0817 10.9342 16.8412 11.0066 14.9331C11.0495 13.7996 11.7008 12.7742 12.5378 11.9372C13.9308 10.5443 16.1532 10.7314 17.0376 12.3162Z" fill="#16A34A"/>
<path d="M20.2595 8.87983C20.3257 8.47094 20.7122 8.19357 21.1211 8.25976C21.1464 8.26461 21.2279 8.27983 21.2705 8.28933C21.3559 8.30834 21.4749 8.33759 21.6233 8.38082C21.9201 8.46726 22.3347 8.60967 22.8323 8.8378C23.8286 9.29456 25.1544 10.0936 26.5302 11.4694C27.906 12.8452 28.705 14.171 29.1617 15.1673C29.3899 15.6649 29.5323 16.0795 29.6187 16.3763C29.6619 16.5247 29.6912 16.6437 29.7102 16.729C29.7197 16.7717 29.7267 16.8059 29.7315 16.8313L29.7373 16.8624C29.8034 17.2713 29.5286 17.6739 29.1197 17.7401C28.712 17.8061 28.3279 17.53 28.2601 17.1231C28.258 17.1121 28.2522 17.0828 28.2461 17.0551C28.2337 16.9997 28.2124 16.9119 28.1786 16.7957C28.1109 16.5634 27.9934 16.2181 27.7982 15.7924C27.4084 14.9421 26.7074 13.7679 25.4695 12.53C24.2317 11.2922 23.0575 10.5912 22.2072 10.2013C21.7815 10.0062 21.4362 9.88865 21.2038 9.82097C21.0877 9.78714 20.9417 9.75363 20.8863 9.7413C20.4793 9.67347 20.1935 9.28755 20.2595 8.87983Z" fill="#16A34A"/>
<path fill-rule="evenodd" clip-rule="evenodd" d="M20.4857 12.3293C20.5995 11.931 21.0146 11.7004 21.4129 11.8142L21.2069 12.5353C21.4129 11.8142 21.4129 11.8142 21.4129 11.8142L21.4144 11.8146L21.4159 11.815L21.4192 11.816L21.427 11.8183L21.4468 11.8245C21.4618 11.8293 21.4807 11.8356 21.5031 11.8436C21.548 11.8595 21.6074 11.8822 21.6802 11.9134C21.8259 11.9758 22.0249 12.0722 22.2695 12.2169C22.7589 12.5066 23.4271 12.9878 24.2121 13.7728C24.9971 14.5577 25.4782 15.2259 25.7679 15.7154C25.9126 15.9599 26.009 16.159 26.0715 16.3047C26.1027 16.3775 26.1254 16.4368 26.1413 16.4817C26.1493 16.5042 26.1555 16.523 26.1604 16.5381L26.1665 16.5579L26.1688 16.5656L26.1698 16.569L26.1702 16.5705C26.1702 16.5705 26.1707 16.5719 25.4495 16.778L26.1707 16.5719C26.2845 16.9702 26.0538 17.3853 25.6556 17.4991C25.2607 17.6119 24.8492 17.3862 24.7313 16.9941L24.7276 16.9833C24.7223 16.9683 24.7113 16.9387 24.6928 16.8955C24.6558 16.8092 24.5887 16.668 24.4771 16.4794C24.2541 16.1026 23.8514 15.5334 23.1514 14.8334C22.4515 14.1335 21.8822 13.7308 21.5055 13.5078C21.3169 13.3962 21.1757 13.3291 21.0893 13.2921C21.0461 13.2736 21.0165 13.2625 21.0015 13.2572L20.9907 13.2535C20.5987 13.1356 20.3729 12.7242 20.4857 12.3293Z" fill="#16A34A"/>
</svg>
