<svg width="35" height="35" viewBox="0 0 35 35" fill="none" xmlns="http://www.w3.org/2000/svg">
<rect width="35" height="35" rx="17.5" fill="#16A34A"/>
<path d="M16.2011 11.8732L16.796 12.9392C17.3329 13.9012 17.1174 15.1632 16.2718 16.0088C16.2718 16.0088 16.2718 16.0088 16.2718 16.0088C16.2717 16.0089 15.2462 17.0346 17.1058 18.8942C18.9647 20.7531 19.9903 19.729 19.9911 19.7282C19.9912 19.7282 19.9912 19.7282 19.9912 19.7281C20.8368 18.8826 22.0988 18.6671 23.0608 19.2039L24.1268 19.7989C25.5795 20.6096 25.751 22.6468 24.4742 23.9237C23.7069 24.6909 22.767 25.2879 21.728 25.3273C19.9788 25.3936 17.0084 24.951 14.0287 21.9713C11.049 18.9916 10.6063 16.0211 10.6726 14.272C10.712 13.233 11.309 12.293 12.0763 11.5258C13.3532 10.2489 15.3904 10.4205 16.2011 11.8732Z" fill="white"/>
<path d="M19.1546 8.7234C19.2153 8.34859 19.5696 8.09433 19.9444 8.15501C19.9676 8.15945 20.0422 8.1734 20.0814 8.18211C20.1596 8.19953 20.2687 8.22635 20.4047 8.26597C20.6768 8.34521 21.0568 8.47575 21.513 8.68488C22.4262 9.10357 23.6416 9.83599 24.9027 11.0971C26.1639 12.3583 26.8963 13.5736 27.315 14.4869C27.5241 14.943 27.6546 15.3231 27.7339 15.5951C27.7735 15.7312 27.8003 15.8403 27.8177 15.9185C27.8264 15.9576 27.8328 15.989 27.8372 16.0122L27.8425 16.0408C27.9032 16.4156 27.6513 16.7846 27.2764 16.8453C26.9027 16.9058 26.5506 16.6527 26.4884 16.2797C26.4865 16.2697 26.4813 16.2428 26.4756 16.2174C26.4643 16.1666 26.4447 16.0861 26.4137 15.9796C26.3517 15.7667 26.244 15.4501 26.0651 15.0599C25.7077 14.2805 25.0651 13.2041 23.9304 12.0694C22.7957 10.9347 21.7194 10.2921 20.9399 9.93478C20.5497 9.75589 20.2332 9.64815 20.0202 9.58612C19.9137 9.5551 19.7799 9.52438 19.7291 9.51308C19.3561 9.45091 19.0941 9.09715 19.1546 8.7234Z" fill="white"/>
<path fill-rule="evenodd" clip-rule="evenodd" d="M19.362 11.8854C19.4663 11.5203 19.8468 11.3089 20.2119 11.4132L20.023 12.0743C20.2119 11.4132 20.2119 11.4132 20.2119 11.4132L20.2132 11.4136L20.2146 11.414L20.2177 11.4149L20.2248 11.417L20.2429 11.4227C20.2567 11.4271 20.274 11.4329 20.2946 11.4402C20.3357 11.4548 20.3902 11.4755 20.4569 11.5042C20.5904 11.5614 20.7729 11.6498 20.997 11.7824C21.4457 12.048 22.0582 12.489 22.7778 13.2086C23.4973 13.9282 23.9384 14.5407 24.204 14.9893C24.3366 15.2135 24.425 15.3959 24.4822 15.5295C24.5108 15.5962 24.5316 15.6506 24.5462 15.6918C24.5535 15.7124 24.5593 15.7297 24.5637 15.7435L24.5694 15.7616L24.5715 15.7687L24.5724 15.7718L24.5728 15.7732C24.5728 15.7732 24.5731 15.7745 23.9121 15.9634L24.5731 15.7745C24.6775 16.1396 24.4661 16.5201 24.101 16.6244C23.739 16.7278 23.3618 16.5209 23.2538 16.1615L23.2504 16.1516C23.2455 16.1379 23.2354 16.1107 23.2184 16.0711C23.1845 15.992 23.123 15.8625 23.0207 15.6897C22.8163 15.3443 22.4471 14.8225 21.8055 14.1809C21.1639 13.5392 20.6421 13.1701 20.2967 12.9657C20.1239 12.8634 19.9944 12.8019 19.9153 12.768C19.8756 12.751 19.8485 12.7409 19.8348 12.736L19.8249 12.7326C19.4655 12.6246 19.2585 12.2474 19.362 11.8854Z" fill="white"/>
</svg>
