<svg width="62" height="62" viewBox="0 0 62 62" fill="none" xmlns="http://www.w3.org/2000/svg">
<rect width="62" height="62" rx="31" fill="#2563EB"/>
<path d="M28.0371 43H33.963C38.1244 43 40.205 43 41.6997 42.037C42.3467 41.62 42.9023 41.0843 43.3347 40.4604C44.3334 39.0191 44.3334 37.0127 44.3334 32.9998C44.3334 28.987 44.3331 26.9809 43.3344 25.5396C42.9021 24.9157 42.3465 24.38 41.6995 23.963C40.2048 23 38.1241 23 33.9628 23H28.0368C23.8755 23 21.7948 23 20.3001 23.963C19.6531 24.38 19.0975 24.9157 18.6652 25.5396C17.6667 26.9806 17.6667 28.9861 17.6667 32.9972L17.6667 32.9998C17.6667 37.0127 17.6667 39.0191 18.6654 40.4604C19.0977 41.0843 19.6533 41.62 20.3003 42.037C21.795 43 23.8757 43 28.0371 43Z" fill="white"/>
<path fill-rule="evenodd" clip-rule="evenodd" d="M31 29.7855C29.1591 29.7855 27.6667 31.2246 27.6667 32.9998C27.6667 34.7751 29.1591 36.2142 31 36.2142C32.841 36.2142 34.3334 34.7751 34.3334 32.9998C34.3334 31.2246 32.841 29.7855 31 29.7855ZM25.4445 32.9998C25.4445 30.0411 27.9318 27.6426 31 27.6426C34.0683 27.6426 36.5556 30.0411 36.5556 32.9998C36.5556 35.9586 34.0683 38.3571 31 38.3571C27.9318 38.3571 25.4445 35.9586 25.4445 32.9998Z" fill="#2563EB"/>
<path fill-rule="evenodd" clip-rule="evenodd" d="M38.0371 28.7141C38.0371 28.1223 38.5345 27.6426 39.1482 27.6426H39.8889C40.5026 27.6426 41 28.1223 41 28.7141C41 29.3058 40.5026 29.7855 39.8889 29.7855H39.1482C38.5345 29.7855 38.0371 29.3058 38.0371 28.7141Z" fill="#2563EB"/>
<path fill-rule="evenodd" clip-rule="evenodd" d="M25.6667 20.3333C25.6667 19.597 26.2177 19 26.8975 19H35.1026C35.7823 19 36.3334 19.597 36.3334 20.3333C36.3334 21.0697 35.7823 21.6667 35.1026 21.6667H26.8975C26.2177 21.6667 25.6667 21.0697 25.6667 20.3333Z" fill="white"/>
</svg>
