<svg width="45" height="44" viewBox="0 0 45 44" fill="none" xmlns="http://www.w3.org/2000/svg">
<rect x="0.753174" width="43.3702" height="43.3702" rx="21.6851" fill="#16A34A"/>
<g clip-path="url(#clip0_112_123)">
<path d="M19.5661 25.2224L19.1246 31.4322C19.7562 31.4322 20.0298 31.1608 20.3578 30.835L23.3193 28.0048L29.4556 32.4986C30.581 33.1258 31.3739 32.7955 31.6775 31.4633L35.7053 12.5895L35.7065 12.5884C36.0634 10.9247 35.1048 10.2742 34.0083 10.6823L10.3327 19.7467C8.71684 20.3739 8.7413 21.2746 10.058 21.6828L16.1109 23.5655L30.1706 14.768C30.8323 14.3298 31.4339 14.5723 30.9391 15.0104L19.5661 25.2224Z" fill="white"/>
</g>
<defs>
<clipPath id="clip0_112_123">
<rect width="26.6894" height="26.6894" fill="white" transform="translate(9.09363 8.34033)"/>
</clipPath>
</defs>
</svg>
