<svg width="82" height="82" viewBox="0 0 82 82" fill="none" xmlns="http://www.w3.org/2000/svg">
<path d="M40.9999 34.1667C48.5478 34.1667 54.6666 28.0479 54.6666 20.5C54.6666 12.9521 48.5478 6.83337 40.9999 6.83337C33.452 6.83337 27.3333 12.9521 27.3333 20.5C27.3333 28.0479 33.452 34.1667 40.9999 34.1667Z" fill="#16A34A"/>
<path d="M9.31985 19.8783C8.9766 18.5053 7.58533 17.6706 6.21236 18.0138C4.83939 18.3571 4.00462 19.7483 4.34787 21.1213L5.65292 26.3415C8.06085 35.9732 15.3614 43.5609 24.7714 46.3938L24.7714 61.6775C24.7713 64.7473 24.7712 67.3071 25.0444 69.3393C25.3328 71.4842 25.9671 73.4208 27.5233 74.977C29.0795 76.5332 31.0161 77.1676 33.1611 77.4559C35.1932 77.7292 37.7531 77.7291 40.8229 77.729H41.1782C44.248 77.7291 46.8078 77.7292 48.84 77.4559C50.985 77.1676 52.9215 76.5332 54.4777 74.977C56.0339 73.4208 56.6683 71.4842 56.9567 69.3393C57.2299 67.3071 57.2298 64.7473 57.2297 61.6776L57.2297 47.3515C60.5819 48.3508 63.1425 51.2632 63.5698 54.8957L65.7889 73.7576C65.9542 75.1631 67.2277 76.1685 68.6332 76.0031C70.0388 75.8377 71.0441 74.5643 70.8788 73.1587L68.6597 54.2969C67.825 47.2014 61.8116 41.854 54.6672 41.854H27.6227C19.2742 39.8943 12.7084 33.4327 10.6249 25.0985L9.31985 19.8783Z" fill="#16A34A"/>
</svg>
