<svg width="44" height="44" viewBox="0 0 44 44" fill="none" xmlns="http://www.w3.org/2000/svg">
<rect x="0.629761" width="43.3702" height="43.3702" rx="21.6851" fill="#16A34A"/>
<g clip-path="url(#clip0_112_127)">
<path fill-rule="evenodd" clip-rule="evenodd" d="M30.7638 11.3698C28.2766 8.87974 24.9689 7.50781 21.445 7.50635C14.1838 7.50635 8.27419 13.4158 8.27127 20.679C8.27029 23.0008 8.87683 25.2673 10.0297 27.2651L8.16077 34.0915L15.1444 32.2595C17.0687 33.3092 19.235 33.8623 21.4397 33.863H21.4452C28.7056 33.863 34.6159 27.9531 34.6187 20.6895C34.6201 17.1694 33.2511 13.8597 30.7638 11.3698ZM21.445 31.6382H21.4405C19.4758 31.6374 17.549 31.1094 15.8676 30.112L15.4679 29.8746L11.3238 30.9617L12.4299 26.9212L12.1695 26.507C11.0734 24.7636 10.4946 22.7486 10.4956 20.6798C10.4978 14.6428 15.4098 9.73129 21.4494 9.73129C24.374 9.73227 27.1233 10.8726 29.1905 12.9423C31.2577 15.012 32.3955 17.763 32.3945 20.6887C32.3919 26.7262 27.4802 31.6382 21.445 31.6382ZM27.451 23.4376C27.122 23.2728 25.5036 22.4767 25.2017 22.3667C24.9003 22.2568 24.6806 22.2021 24.4613 22.5315C24.2418 22.8609 23.6111 23.6025 23.419 23.822C23.2269 24.0417 23.0351 24.0693 22.7058 23.9044C22.3766 23.7397 21.316 23.392 20.0587 22.2706C19.0802 21.3978 18.4197 20.3199 18.2275 19.9905C18.0357 19.6608 18.2259 19.4998 18.372 19.3187C18.7283 18.8763 19.0851 18.4123 19.1948 18.1928C19.3046 17.9731 19.2496 17.7808 19.1672 17.6161C19.0851 17.4514 18.4268 15.8312 18.1526 15.172C17.8852 14.5304 17.614 14.617 17.4118 14.607C17.2201 14.5974 17.0005 14.5954 16.781 14.5954C16.5616 14.5954 16.2049 14.6777 15.9031 15.0074C15.6015 15.337 14.7512 16.1332 14.7512 17.7534C14.7512 19.3736 15.9307 20.9388 16.0952 21.1585C16.2598 21.3782 18.4164 24.7029 21.7183 26.1286C22.5036 26.468 23.1167 26.6704 23.5949 26.8221C24.3835 27.0726 25.1008 27.0373 25.6681 26.9525C26.3006 26.858 27.6154 26.1562 27.89 25.3874C28.1642 24.6184 28.1642 23.9595 28.0817 23.822C27.9996 23.6847 27.7801 23.6025 27.451 23.4376Z" fill="white"/>
</g>
<defs>
<clipPath id="clip0_112_127">
<rect width="28.3574" height="28.3574" fill="white" transform="translate(8.13623 7.50635)"/>
</clipPath>
</defs>
</svg>
