<svg width="38" height="38" viewBox="0 0 38 38" fill="none" xmlns="http://www.w3.org/2000/svg">
<rect width="38" height="38" rx="19" fill="#D6FFE5"/>
<path d="M13.921 28.1852C15.4764 29.0488 17.2263 29.5013 19.0052 29.5C24.8027 29.5 29.5 24.7922 29.5 18.9947C29.5 13.1972 24.8027 8.5 19.0052 8.5C13.2077 8.5 8.5 13.1972 8.5 18.9947C8.5 20.8592 8.989 22.5917 9.835 24.1097L8.5 29.5L13.921 28.1852ZM14.5015 14.359C14.6238 14.2446 14.7721 14.1616 14.9335 14.1171C15.095 14.0727 15.2649 14.0682 15.4285 14.104L15.7653 14.1753C16.1013 14.2465 16.3765 14.4707 16.5085 14.7767L17.1707 16.2437C17.2511 16.4202 17.2785 16.6162 17.2496 16.8079C17.2207 16.9996 17.1368 17.1788 17.008 17.3237L16.6007 17.803C16.5345 17.8809 16.4931 17.9769 16.4822 18.0785C16.4712 18.1802 16.4911 18.2828 16.5392 18.373C17.7415 20.533 19.321 21.2365 20.0238 21.4502C20.125 21.483 20.2343 21.4807 20.3342 21.4439C20.434 21.407 20.5185 21.3377 20.5743 21.247L20.8698 20.788C21.1547 20.35 21.7157 20.197 22.3368 20.503L23.5592 21.1142C24.0288 21.3385 24.2418 21.8882 24.0693 22.378C23.4475 24.181 21.8583 23.9567 21.8583 23.9567C18.3333 23.8652 15.571 20.6147 14.3792 18.9437C13.8287 18.1592 13.4928 17.2112 13.5948 16.2437C13.6968 15.286 14.1445 14.6845 14.5015 14.359Z" fill="#16A34A"/>
</svg>
