<svg width="62" height="62" viewBox="0 0 62 62" fill="none" xmlns="http://www.w3.org/2000/svg">
<rect width="62" height="62" rx="31" fill="#16A34A"/>
<path d="M22.3899 45.0826H22C20.5858 45.0826 19.8787 45.0826 19.4393 44.6432C19 44.2039 19 43.4968 19 42.0826V40.4147C19 39.6369 19 39.248 19.1998 38.9007C19.3995 38.5534 19.7009 38.3782 20.3037 38.0276C24.2719 35.7197 29.9073 34.4205 33.6686 36.6638C33.9213 36.8146 34.1486 36.9965 34.3428 37.2147C35.18 38.155 35.1189 39.5742 34.1541 40.4162C33.9504 40.5941 33.7332 40.7289 33.5145 40.7758C33.6943 40.755 33.8665 40.7311 34.0309 40.7049C35.398 40.4868 36.5456 39.7563 37.5961 38.9626L40.3069 36.9149C41.2626 36.193 42.681 36.1928 43.6368 36.9146C44.4973 37.5643 44.7604 38.6341 44.2164 39.5061C43.582 40.523 42.6882 41.824 41.8299 42.6189C40.9704 43.4149 39.6908 44.1256 38.6462 44.6298C37.4891 45.1883 36.2107 45.5101 34.9104 45.7206C32.2733 46.1475 29.5248 46.0824 26.9145 45.5446C25.4388 45.2405 23.9062 45.0826 22.3899 45.0826Z" fill="white"/>
<path d="M22.8787 16.8787C22.3285 17.4288 22.1228 18.189 22.0459 19.3747C23.8734 19.3503 25.3503 17.8734 25.3747 16.0459C24.189 16.1228 23.4288 16.3285 22.8787 16.8787Z" fill="white"/>
<path d="M39.1213 16.8787C38.5712 16.3285 37.811 16.1228 36.6253 16.0459C36.6497 17.8734 38.1266 19.3503 39.9541 19.3747C39.8772 18.189 39.6715 17.4288 39.1213 16.8787Z" fill="white"/>
<path d="M39.1213 27.1213C38.5712 27.6715 37.811 27.8772 36.6253 27.9541C36.6497 26.1266 38.1266 24.6497 39.9541 24.6253C39.8772 25.811 39.6715 26.5712 39.1213 27.1213Z" fill="white"/>
<path d="M22.8787 27.1213C23.4288 27.6715 24.189 27.8772 25.3747 27.9541C25.3503 26.1266 23.8734 24.6497 22.0459 24.6253C22.1228 25.811 22.3285 26.5712 22.8787 27.1213Z" fill="white"/>
<path fill-rule="evenodd" clip-rule="evenodd" d="M22 21.625C25.1066 21.625 27.625 19.1066 27.625 16H34.375C34.375 19.1066 36.8934 21.625 40 21.625V22.375C36.8934 22.375 34.375 24.8934 34.375 28H27.625C27.625 24.8934 25.1066 22.375 22 22.375V21.625ZM31 23.5C31.8284 23.5 32.5 22.8284 32.5 22C32.5 21.1716 31.8284 20.5 31 20.5C30.1716 20.5 29.5 21.1716 29.5 22C29.5 22.8284 30.1716 23.5 31 23.5Z" fill="white"/>
</svg>
